<?xml version="1.0" standalone="no"?>
<!DOCTYPE svg PUBLIC "-//W3C//DTD SVG 1.1//EN" "http://www.w3.org/Graphics/SVG/1.1/DTD/svg11.dtd" >
<svg xmlns="http://www.w3.org/2000/svg" xmlns:xlink="http://www.w3.org/1999/xlink" version="1.1">
<metadata></metadata>
<defs>
<font id="lemon_milklight" horiz-adv-x="396" >
<font-face units-per-em="2048" ascent="1638" descent="-410" />
<missing-glyph horiz-adv-x="500" />
<glyph horiz-adv-x="0" />
<glyph horiz-adv-x="682" />
<glyph unicode=" " />
<glyph unicode="!" horiz-adv-x="399" d="M148 308l-18 756h137l-17 -756h-102zM200 -27q-36 0 -62 25.5t-26 61.5t25.5 61t61.5 25q24 0 44 -12t32 -32.5t12 -43.5q0 -35 -25.5 -60t-61.5 -25z" />
<glyph unicode="&#x22;" horiz-adv-x="438" d="M80 744l-23 347h120l-24 -347h-73zM285 744l-23 347h120l-24 -347h-73z" />
<glyph unicode="#" horiz-adv-x="1003" d="M948 653h-186l-37 -280h193l-14 -93h-191l-37 -280h-99l37 280h-287l-37 -280h-99l37 280h-186l13 93h185l37 280h-192l15 93h189l42 318h99l-41 -318h286l42 318h99l-41 -318h187zM626 373l37 280h-287l-37 -280h287z" />
<glyph unicode="$" horiz-adv-x="825" d="M781 288q0 -61 -25 -114t-68 -91.5t-101.5 -63t-125.5 -31.5v-140h-93v139q-114 9 -200.5 65.5t-122.5 137.5l92 68q32 -60 94 -100t137 -49v407q-33 13 -56.5 23t-54 26t-51.5 31t-43.5 36.5t-36 44.5t-22.5 53t-9 64q0 108 77 186t196 95v118h93v-115q68 -5 124.5 -32 t93 -67.5t55.5 -90.5l-90 -60q-23 52 -72.5 87.5t-110.5 44.5v-359q2 0 9 -3q39 -16 67.5 -28.5t63.5 -31t59 -36t48.5 -41t39 -48.5t24 -57t9.5 -68zM216 791q0 -52 38.5 -86.5t113.5 -66.5v316q-66 -15 -109 -60t-43 -103zM461 110q87 13 143 61t56 115q0 34 -15.5 63.5 t-45 53t-62 41t-76.5 36.5v-370z" />
<glyph unicode="%" horiz-adv-x="1140" d="M300 589q-100 0 -172 71.5t-72 172t72 172t173 71.5q100 0 171.5 -71.5t71.5 -171.5q0 -101 -71.5 -172.5t-172.5 -71.5zM152 0l726 1065h105l-726 -1065h-105zM300 671q67 0 114.5 47t47.5 114t-47.5 114.5t-114.5 47.5t-114.5 -47.5t-47.5 -114.5t47.5 -114t114.5 -47z M840 -13q-100 0 -172 72t-72 172q0 66 33 122t89.5 89t122.5 33q100 0 171.5 -71.5t71.5 -171.5q0 -101 -71.5 -173t-172.5 -72zM840 69q67 0 114.5 47.5t47.5 114.5t-47.5 114.5t-114.5 47.5t-114.5 -47.5t-47.5 -114.5q0 -44 21.5 -81t59 -59t81.5 -22z" />
<glyph unicode="&#x26;" horiz-adv-x="1034" d="M1001 104v-113q-104 0 -274 120q-122 -128 -308 -128q-84 0 -154 28.5t-115 75.5t-69.5 107t-24.5 125q0 97 54 181.5t140 130.5q-63 119 -63 201q0 63 34 121t96 95t136 37q103 0 177.5 -69t84.5 -169l-118 -21q-4 64 -46.5 106t-101.5 42q-61 0 -102 -43t-41 -103 q0 -67 57.5 -168.5t145 -201.5t187.5 -185q60 106 67 259l113 1q-4 -198 -84 -335q132 -94 209 -94zM413 101q127 0 217 85q-92 77 -177.5 170t-148.5 186q-27 -17 -49 -37t-37.5 -41t-26.5 -44.5t-16 -47t-5 -47.5q0 -94 65.5 -159t177.5 -65z" />
<glyph unicode="'" horiz-adv-x="232" d="M80 744l-23 347h120l-24 -347h-73z" />
<glyph unicode="(" horiz-adv-x="413" d="M245 -79q-93 125 -141 285t-48 339q0 349 165 598h111q-72 -118 -116.5 -282t-44.5 -317q0 -164 52.5 -337t133.5 -286h-112z" />
<glyph unicode=")" horiz-adv-x="413" d="M168 -79h-112q81 113 133.5 286t52.5 337q0 153 -44.5 317t-116.5 282h111q165 -249 165 -598q0 -179 -48 -339t-141 -285z" />
<glyph unicode="*" horiz-adv-x="549" d="M233 624l13 198l-144 -114l-46 66l173 97l-173 97l46 66l144 -115l-13 198h84l-13 -198l143 115l46 -66l-172 -99l172 -95l-46 -66l-143 113l13 -197h-84z" />
<glyph unicode="+" horiz-adv-x="848" d="M737 535v-112h-256v-305h-112v305h-257v112h257v305h112v-305h256z" />
<glyph unicode="," horiz-adv-x="387" d="M132 -247q-20 0 -33 7.5t-13 15.5q16 0 35 8t39 24.5t33.5 46.5t13.5 68q0 31 -14 52q-32 0 -57 22t-25 58q0 39 26.5 66t66.5 27q41 0 70 -36t29 -107q0 -108 -52 -180t-119 -72z" />
<glyph unicode="-" horiz-adv-x="633" d="M56 465v107h522v-107h-522z" />
<glyph unicode="." horiz-adv-x="343" d="M172 -27q-37 0 -62.5 25.5t-25.5 61.5t26 61.5t61.5 25.5t61.5 -25.5t26 -61.5t-26 -61.5t-61 -25.5z" />
<glyph unicode="/" horiz-adv-x="571" d="M17 -79l430 1222h107l-429 -1222h-108z" />
<glyph unicode="0" horiz-adv-x="967" d="M484 -12q-125 0 -222.5 69.5t-151.5 193.5t-54 281q0 158 54 282t151.5 193t222.5 69q94 0 173.5 -40.5t135.5 -112t87 -172.5t31 -219q0 -158 -53.5 -281.5t-151 -193t-222.5 -69.5zM483.5 110q136.5 0 222 118t85.5 304q0 187 -85.5 305.5t-222 118.5t-222 -118.5 t-85.5 -305.5q0 -186 85.5 -304t222 -118z" />
<glyph unicode="1" horiz-adv-x="456" d="M309 1071h35v-1071h-120v917l-168 -52v126z" />
<glyph unicode="2" horiz-adv-x="906" d="M310 120h540v-120h-794v32q364 266 513 418.5t149 260.5q0 103 -73 174t-176 71q-114 0 -190.5 -76.5t-76.5 -191.5l-110 24q0 102 49 185.5t134.5 131t189.5 47.5q78 0 147.5 -29t119 -77.5t78 -115t28.5 -138.5q0 -138 -133.5 -286t-394.5 -310z" />
<glyph unicode="3" horiz-adv-x="830" d="M556 586q219 -60 219 -276q0 -60 -28 -117.5t-75.5 -101.5t-115 -71t-141.5 -27q-127 0 -229 76t-130 188l118 29q18 -73 87 -123.5t152 -50.5q66 0 122 30t87.5 77.5t31.5 98.5q0 108 -94.5 168.5t-257.5 58.5l21 74q72 0 133.5 19.5t102.5 62.5t41 102q0 74 -55 122 t-135 48q-43 0 -82 -19t-66 -53t-34 -75l-123 26q22 98 107 168.5t199 70.5q128 0 218.5 -81t90.5 -199q0 -86 -47 -143.5t-117 -81.5z" />
<glyph unicode="4" horiz-adv-x="886" d="M853 348v-120h-128v-228h-119v228h-589l423 839l128 -1l-370 -718h408v389h119v-389h128z" />
<glyph unicode="5" horiz-adv-x="863" d="M438 742q165 0 267.5 -103.5t102.5 -264.5q0 -108 -52.5 -195.5t-141.5 -136.5t-196 -49q-114 0 -217 63t-145 162l118 37q28 -60 100.5 -100.5t139.5 -40.5q69 0 130.5 31t100.5 91.5t39 137.5q0 111 -74 181t-188 70q-87 0 -161.5 -46.5t-99.5 -117.5l-69 51l77 553 h548v-120h-455l-45 -296q84 93 221 93z" />
<glyph unicode="6" horiz-adv-x="860" d="M463 685q65 0 126.5 -24.5t109.5 -67.5t77 -108.5t29 -140.5q0 -69 -30 -134t-80 -113.5t-119.5 -78t-145.5 -29.5q-103 0 -188.5 46t-135.5 126.5t-50 177.5q0 37 7.5 69t20.5 63.5t45.5 87.5t67 112t101.5 167t133 226l137 -1l-249 -413q68 35 144 35zM431 109 q68 0 127.5 33.5t93.5 88.5t34 116q0 101 -74.5 172.5t-179.5 71.5t-180 -71.5t-75 -172.5q0 -94 75 -166t179 -72z" />
<glyph unicode="7" horiz-adv-x="778" d="M34 1064h727v-23l-450 -1041h-127l405 946h-555v118z" />
<glyph unicode="8" horiz-adv-x="827" d="M414 -12q-76 0 -143 26.5t-113.5 71t-74 104.5t-27.5 125q0 56 21 108t55 88t75 59t83 28q-72 12 -125 74t-53 141q0 108 86.5 185.5t215.5 77.5q130 0 216.5 -77t86.5 -185q0 -81 -54 -143t-122 -73q39 -6 79.5 -29t74.5 -59t55.5 -87.5t21.5 -107.5q0 -87 -46.5 -162 t-129 -120t-182.5 -45zM414 653q50 0 92.5 18t68.5 53.5t26 80.5q0 72 -53 115.5t-133 43.5t-133.5 -43.5t-53.5 -113.5q0 -67 54.5 -110.5t131.5 -43.5zM413 108q49 0 93 17t76 45.5t50.5 68t18.5 83.5q0 86 -69.5 148t-167 62t-167.5 -62t-70 -149q0 -88 69 -150.5 t167 -62.5z" />
<glyph unicode="9" horiz-adv-x="860" d="M430 1073q62 0 119.5 -19t103 -52.5t80 -78t53.5 -98.5t19 -110q0 -40 -8 -75t-21.5 -67t-46 -86.5t-67 -109t-100.5 -161.5t-132 -218h-137l244 406q-65 -33 -140 -33q-65 0 -126.5 25t-109 69.5t-76.5 110t-29 141.5q0 69 29.5 134.5t79.5 114t119.5 78t145.5 29.5z M430 472q105 0 179.5 71.5t74.5 171.5q0 94 -75.5 166.5t-178.5 72.5t-178.5 -72.5t-75.5 -166.5q0 -100 74.5 -171.5t179.5 -71.5z" />
<glyph unicode=":" horiz-adv-x="343" d="M171.5 531q-23.5 0 -43.5 11.5t-32 31.5t-12 44q0 36 25.5 61.5t62 25.5t62 -26t25.5 -61q0 -24 -11.5 -44t-32 -31.5t-44 -11.5zM172 0q-36 0 -62 26t-26 62q0 35 26 61t61.5 26t61.5 -26t26 -61q0 -36 -25.5 -62t-61.5 -26z" />
<glyph unicode=";" horiz-adv-x="394" d="M199 531q-37 0 -62.5 25.5t-25.5 61.5t25.5 61.5t62.5 25.5q35 0 61 -26t26 -61.5t-26 -61t-61 -25.5zM140 -247q-20 0 -33 7.5t-13 15.5q15 0 34.5 8t39 24.5t33 46.5t13.5 68q0 32 -13 52q-21 0 -39.5 9t-30.5 28t-12 43q0 39 26.5 66t65.5 27q26 0 48 -14t37 -47.5 t15 -81.5q0 -108 -52 -180t-119 -72z" />
<glyph unicode="&#x3c;" horiz-adv-x="857" d="M742 121l-630 413v13l633 413l-3 -127l-462 -292l462 -292v-128z" />
<glyph unicode="=" horiz-adv-x="859" d="M112 635v107h636v-107h-636zM112 288v107h636v-107h-636z" />
<glyph unicode="&#x3e;" horiz-adv-x="857" d="M116 121v128l461 292l-461 292l-4 127l633 -413v-13z" />
<glyph unicode="?" horiz-adv-x="708" d="M260 307v19q0 24 4 46.5t13 43.5t19.5 40t26.5 38.5t31.5 36t37 36t40 35t43.5 34.5q28 22 47.5 62t19.5 82q0 85 -63.5 141t-157.5 56q-47 0 -92 -16t-79 -45.5t-49 -65.5l-45 96q13 25 36 49t56.5 47t80 37.5t98.5 14.5q68 0 129 -25t103.5 -66t67.5 -94.5t25 -108.5 q0 -140 -88 -220q-17 -15 -51 -41t-53 -42.5t-41 -42t-33 -55.5t-12 -67v-24zM318.5 -27q-36.5 0 -61.5 25.5t-25 61.5t25 61t61 25q24 0 44.5 -12t32.5 -32.5t12 -43.5q0 -35 -26 -60t-62.5 -25z" />
<glyph unicode="@" horiz-adv-x="1512" d="M690 -291q-86 0 -164 16.5t-141.5 47t-116.5 73.5t-92 95.5t-66 112.5t-40.5 126t-13.5 135q0 105 29 206t81 187t126 159.5t161 124.5t189.5 80t208.5 29q131 0 244.5 -44.5t192.5 -122.5t123.5 -186.5t44.5 -232.5q0 -76 -16.5 -149.5t-48.5 -138t-75.5 -114 t-102.5 -78t-124 -28.5q-96 0 -140 67t-36 181q-15 -64 -82.5 -106t-146.5 -42q-101 0 -162 68.5t-61 174.5q0 87 37 164t104.5 125t148.5 47q77 0 134 -40.5t57 -95.5l30 130h87l-50 -403q-3 -29 -3 -43q0 -62 25 -98t77 -36t96 36t71.5 94t42.5 127t15 137 q0 112 -38.5 205t-106 155t-159.5 96t-198 33q-131 0 -252.5 -53t-210 -141.5t-141.5 -209.5t-53 -251q0 -107 38.5 -200t106.5 -161t167 -107t215 -39q100 0 178 33l34 -104q-102 -41 -223 -41zM723 204q86 0 144 66t58 158q0 71 -43 116t-115 45q-44 0 -82.5 -18t-66 -48 t-43 -70.5t-15.5 -84.5q0 -71 43.5 -117.5t119.5 -46.5z" />
<glyph unicode="A" horiz-adv-x="1030" d="M884 0l-78 175h-581l-78 -175h-130l492 1080h13l492 -1080h-130zM272 279h488l-244 547z" />
<glyph unicode="B" horiz-adv-x="876" d="M570 599q41 0 81 -13t74.5 -37.5t61 -57.5t41.5 -76t15 -90q0 -63 -24.5 -122t-67.5 -104t-107 -72t-138 -27h-394v1064h291q64 0 121.5 -22t97.5 -58.5t63 -84.5t23 -100q0 -81 -46.5 -140.5t-91.5 -59.5zM409 947h-177v-322h177q84 0 135 45.5t51 114.5q0 68 -54.5 115 t-131.5 47zM496 117q93 0 161 62.5t68 153.5q0 77 -66 131.5t-169 53.5h-258v-401h264z" />
<glyph unicode="C" horiz-adv-x="1001" d="M603 -14q-87 0 -170 27.5t-150.5 78t-118.5 117.5t-79.5 150.5t-28.5 171.5t28 171.5t79 151t118 118.5t150.5 79t171.5 28q100 -1 196 -44t169 -117l-70 -94q-39 40 -85.5 69.5t-102 46.5t-112.5 17q-79 0 -155.5 -33t-135 -89t-94 -136t-35.5 -167.5t35.5 -167.5 t93.5 -135.5t135 -88.5t158 -33q165 0 299 132l69 -96q-157 -157 -365 -157z" />
<glyph unicode="D" horiz-adv-x="1007" d="M409 1065q248 0 395 -144.5t147 -389.5q0 -243 -147 -387t-395 -144h-297v1064zM410 120q192 0 306 112t114 299q0 94 -30 171t-84.5 130.5t-133.5 83t-174 29.5h-176v-825h178z" />
<glyph unicode="E" horiz-adv-x="815" d="M737 946h-505v-337h438v-120h-438v-370h505v-119h-625v1064h625v-118z" />
<glyph unicode="F" horiz-adv-x="770" d="M737 947h-505v-354h438v-120h-438v-474h-120v1068h625v-120z" />
<glyph unicode="G" horiz-adv-x="1167" d="M1107 564q4 -40 4 -76q0 -110 -40 -204.5t-108.5 -159.5t-161 -102t-194.5 -37q-90 0 -174 28t-152 78.5t-119 117.5t-78.5 150.5t-27.5 171.5q0 111 43.5 212t117 174.5t174.5 117t212 43.5q98 0 205.5 -44.5t179.5 -114.5l-67 -100q-62 62 -150.5 100.5t-168.5 38.5 q-83 0 -160.5 -33t-135.5 -89.5t-93 -136t-35 -168.5q0 -69 21.5 -133.5t61 -117t92.5 -91.5t119.5 -60.5t139.5 -21.5q103 0 188 42t134 117.5t49 167.5v21h-382v109h506z" />
<glyph unicode="H" horiz-adv-x="1003" d="M772 1064h119v-1064h-119v473h-540v-473h-120v1064h120v-472h540v472z" />
<glyph unicode="I" horiz-adv-x="344" d="M112 0v1064h120v-1064h-120z" />
<glyph unicode="J" horiz-adv-x="805" d="M273 -17q-61 0 -126 20t-113 53l62 107q32 -27 80.5 -43.5t97.5 -16.5h5q82 0 153 41.5t112 112.5t41 154l-3 653l120 -1l2 -654q0 -116 -56.5 -214.5t-154.5 -155t-213 -56.5h-7z" />
<glyph unicode="K" horiz-adv-x="854" d="M112 0v1064h120v-1064h-120zM695 0l-447 535l416 529h141l-414 -523l452 -541h-148z" />
<glyph unicode="L" horiz-adv-x="787" d="M232 119h522v-119h-642v1064h120v-945z" />
<glyph unicode="M" horiz-adv-x="1266" d="M1141 1084h13v-1084h-120v722l-400 -704h-1l-401 705v-723h-120v1084h14l508 -846z" />
<glyph unicode="N" horiz-adv-x="1079" d="M847 1067h121v-1083h-6l-730 809v-794h-120v1081h7l728 -809v796z" />
<glyph unicode="O" horiz-adv-x="1205" d="M602 -14q-110 0 -211 43.5t-174.5 116.5t-117 174t-43.5 211q0 111 43.5 212.5t117 175t174.5 117t212 43.5q110 0 211.5 -43.5t175 -117t117 -175t43.5 -212.5q0 -110 -43.5 -211t-117 -174t-175 -116.5t-212.5 -43.5zM602 108q115 0 213.5 56.5t155.5 154.5t57 213 t-57 213.5t-155.5 155.5t-213.5 57t-213 -57t-154.5 -155.5t-56.5 -213.5t56.5 -213t154.5 -154.5t213 -56.5z" />
<glyph unicode="P" horiz-adv-x="857" d="M112 0v1064h337q76 0 145.5 -27.5t119.5 -73.5t80 -109.5t30 -132.5q0 -89 -50.5 -164.5t-136.5 -119.5t-188 -44h-217v-393h-120zM449 511q69 0 127.5 28t93 77t34.5 106q0 45 -20.5 86.5t-54.5 71.5t-81 47.5t-99 17.5h-217v-433z" />
<glyph unicode="Q" horiz-adv-x="1205" d="M1150 531q0 -122 -52 -230.5t-144 -185.5q85 -45 187 -48l-17 -117q-153 4 -271 98q-116 -62 -251 -62q-110 0 -211 43.5t-174.5 116.5t-117 174t-43.5 211q0 111 43.5 212.5t117 175t174.5 117t212 43.5q110 0 211.5 -43.5t175 -117t117 -175t43.5 -212.5zM178 532 q0 -115 56.5 -213t154.5 -154.5t213 -56.5q83 0 158 30q-15 18 -36 43.5t-35.5 44t-34.5 40.5t-36.5 38t-37.5 32t-41 26t-44.5 16.5t-50.5 7.5l11 105q49 -2 92 -17t74 -36.5t63.5 -54t55.5 -62t55.5 -67.5t58.5 -64q81 60 127.5 149.5t46.5 192.5q0 115 -57 213.5 t-155.5 155.5t-213.5 57t-213 -57t-154.5 -155.5t-56.5 -213.5z" />
<glyph unicode="R" horiz-adv-x="888" d="M877 0h-148l-297 415h-199v-415h-120l-1 1064h314q97 0 180 -45.5t131 -123.5t48 -170q0 -103 -63 -184.5t-161 -111.5zM232 517l198 -1q95 0 163 62.5t68 148.5q0 92 -68 155t-163 63h-198v-428z" />
<glyph unicode="S" horiz-adv-x="825" d="M407 -15q-127 0 -224.5 58t-137.5 147l92 68q36 -68 110.5 -110t159.5 -42q106 0 179.5 51.5t73.5 128.5q0 20 -6 38t-14.5 33t-24.5 30.5t-30 26.5t-38 24t-40 21t-45 20t-44.5 18t-45.5 18q-34 13 -57 23t-54.5 25.5t-53 30.5t-44.5 37t-36.5 45t-22.5 53.5t-9 64.5 q0 122 96.5 204t237.5 82q113 0 193 -54t112 -138l-90 -60q-26 60 -85.5 97t-130.5 37q-87 0 -149.5 -50t-62.5 -121q0 -20 6.5 -38t15.5 -31.5t28.5 -28t34 -23.5t44 -22t47 -20t52.5 -20q17 -7 26 -10q39 -16 67.5 -28.5t63.5 -31t59 -36t48.5 -41t39 -48.5t24 -57 t9.5 -68q0 -89 -51 -159t-136 -107t-187 -37z" />
<glyph unicode="T" horiz-adv-x="805" d="M772 1064v-119h-309v-945h-120v945h-309v119h738z" />
<glyph unicode="U" horiz-adv-x="990" d="M495 -16q-111 0 -201.5 55t-141.5 153.5t-51 220.5v651h121v-650q0 -134 77.5 -221.5t195.5 -87.5t195.5 87.5t77.5 221.5v650h121v-651q0 -122 -51 -220.5t-141 -153.5t-202 -55z" />
<glyph unicode="V" horiz-adv-x="1015" d="M869 1064h130l-485 -1080h-14l-483 1080h128l361 -824z" />
<glyph unicode="W" horiz-adv-x="1281" d="M347 -7l-330 1071h129l231 -777l260 690h9l259 -690l231 777h129l-330 -1071h-18l-277 706l-275 -706h-18z" />
<glyph unicode="X" horiz-adv-x="894" d="M17 0l361 553l-334 511h139l265 -407l264 407h140l-335 -511l361 -553h-136l-295 445l-293 -445h-137z" />
<glyph unicode="Y" horiz-adv-x="905" d="M393 0v452l-376 612h135l301 -478l301 478h135l-377 -612v-452h-119z" />
<glyph unicode="Z" horiz-adv-x="883" d="M67 0l555 945h-555v119h749l-555 -945h555v-119h-749z" />
<glyph unicode="[" horiz-adv-x="436" d="M381 1050h-164v-1036h164v-93h-269v1222h269v-93z" />
<glyph unicode="\" horiz-adv-x="571" d="M555 -79h-108l-430 1222h108z" />
<glyph unicode="]" horiz-adv-x="436" d="M325 1143v-1222h-269v93h164v1036h-164v93h269z" />
<glyph unicode="^" horiz-adv-x="632" d="M17 721l293 385h13l293 -385h-108l-191 251l-192 -251h-108z" />
<glyph unicode="_" horiz-adv-x="797" d="M0 -43v87h798v-87h-798z" />
<glyph unicode="`" d="M157 880l-157 216h110l138 -216h-91z" />
<glyph unicode="i" horiz-adv-x="344" d="M112 0v1064h120v-1064h-120z" />
<glyph unicode="{" horiz-adv-x="564" d="M370 -79q-70 0 -119.5 64t-49.5 154v110q0 103 -40.5 173.5t-104.5 70.5v83q64 0 104.5 70.5t40.5 173.5v105q0 90 49.5 154t119.5 64h139v-92l-110 -2q-38 -1 -65.5 -51t-27.5 -119v-80q0 -109 -41.5 -186.5t-99.5 -77.5q58 0 99.5 -78t41.5 -187v-85q0 -70 27.5 -120.5 t65.5 -50.5h110v-93h-139z" />
<glyph unicode="|" horiz-adv-x="440" d="M182 -297v1518h77v-1518h-77z" />
<glyph unicode="}" horiz-adv-x="564" d="M195 -79h-139v93h111q38 0 65 50.5t27 120.5v85q0 109 41.5 187t99.5 78q-38 0 -70.5 35t-51.5 96t-19 133v80q0 70 -27 119.5t-65 50.5l-111 2v92h139q70 0 119.5 -64t49.5 -154v-105q0 -67 18 -122.5t51.5 -88.5t75.5 -33v-83q-64 0 -104.5 -70.5t-40.5 -173.5v-110 q0 -90 -49.5 -154t-119.5 -64z" />
<glyph unicode="~" horiz-adv-x="927" d="M199 424l-87 33q13 53 36.5 91t53 57t58.5 28t59 9q39 0 72.5 -14t57.5 -33.5t46.5 -39t48.5 -33.5t54 -14q43 0 73.5 32.5t46.5 90.5l87 -34q-12 -52 -35.5 -90t-53.5 -57.5t-59 -28t-59 -8.5q-38 0 -71.5 14t-57.5 33.5t-46.5 39t-49 33t-54.5 13.5q-43 0 -73.5 -32 t-46.5 -90z" />
<glyph unicode="&#xa0;" />
<glyph unicode="&#xa2;" horiz-adv-x="798" d="M748 173q-48 -43 -113 -68.5t-133 -30.5v-141l-99 -2v148q-72 11 -135.5 46.5t-111.5 89t-76.5 126.5t-28.5 154t28.5 154t76.5 126.5t111.5 89t135.5 47.5v144l99 1v-141q65 -5 127 -28.5t109 -62.5l-65 -96q-29 28 -75 47.5t-96 24.5v-612q51 5 98 25.5t78 50.5z M166 495q0 -114 68 -195t169 -105v600q-66 -15 -119 -55.5t-85.5 -104.5t-32.5 -140z" />
<glyph unicode="&#xa3;" horiz-adv-x="809" d="M267 110h487v-110h-691v110h83q81 106 81 241q0 47 -20 112h-148v89h121q-19 76 -19 146q0 72 25 139.5t71 120.5t118 84.5t159 31.5q49 0 104.5 -15.5t100.5 -44.5l-60 -102q-24 24 -62.5 38.5t-77.5 14.5q-63 0 -113 -23.5t-81 -62.5t-47 -86t-16 -97q0 -69 19 -144 h264v-89h-236q18 -62 18 -113q0 -140 -80 -240z" />
<glyph unicode="&#xa5;" horiz-adv-x="984" d="M928 1064l-324 -527h309v-96h-361v-105h361v-95h-361v-241h-120v241h-355v95h355v105h-355v96h303l-324 527h135l301 -478l301 478h135z" />
<glyph unicode="&#xa8;" d="M47 922q-24 0 -42 17.5t-18 41.5t18 41.5t42 17.5t41.5 -17.5t17.5 -41.5t-17.5 -41.5t-41.5 -17.5zM342.5 922q-24.5 0 -41.5 17.5t-17 41.5q0 16 8 29.5t21.5 21.5t29.5 8q24 0 41.5 -17.5t17.5 -41.5t-17.5 -41.5t-42 -17.5z" />
<glyph unicode="&#xa9;" horiz-adv-x="1146" d="M573 -58q-106 0 -202 40.5t-165 110t-109.5 165t-40.5 201.5t40.5 202t109.5 165t164.5 109.5t202.5 40.5t203 -41t165 -110.5t109 -165.5t40 -200q0 -106 -41 -202t-110 -165t-165 -109.5t-201 -40.5zM573.5 7q90.5 0 174.5 36t144.5 96.5t97 144t36.5 175.5 q0 91 -36 175t-97 145t-145 97.5t-175.5 36.5t-175 -36.5t-144 -97.5t-96.5 -144.5t-36 -175t36 -175t97 -144.5t145 -97t174.5 -36zM579 136q-83 0 -157 40.5t-120.5 116.5t-46.5 170q0 93 46.5 169.5t120.5 117.5t157 41q56 0 111 -19t98 -53l-51 -76q-25 25 -68.5 41 t-88.5 16q-93 0 -163.5 -67t-70.5 -170q0 -68 33.5 -123.5t87 -84.5t113.5 -29q45 0 89 17t72 43l54 -73q-42 -36 -99.5 -56.5t-116.5 -20.5z" />
<glyph unicode="&#xab;" horiz-adv-x="733" d="M384 838l-210 -317l210 -316l-79 -20l-249 336l249 337zM678 838l-210 -317l210 -316l-79 -20l-249 336l249 337z" />
<glyph unicode="&#xad;" horiz-adv-x="633" d="M56 465v107h522v-107h-522z" />
<glyph unicode="&#xae;" horiz-adv-x="759" d="M380 1064q89 0 162.5 -43t115.5 -116.5t42 -160.5q0 -88 -43 -162t-116.5 -116.5t-160.5 -42.5q-134 0 -227.5 93.5t-93.5 227.5q0 133 93.5 226.5t227.5 93.5zM380 460q116 0 199.5 83.5t83.5 199.5q0 117 -83 201t-200 84t-200.5 -84t-83.5 -201q0 -116 84 -199.5 t200 -83.5zM504 812q0 -23 -10.5 -44t-28 -35.5t-40.5 -21.5l109 -146h-44l-103 143l-83 13v-156h-35v362h112q51 0 87 -33.5t36 -81.5zM304 892v-155h79q35 0 59.5 22t24.5 53q0 33 -25 56.5t-59 23.5h-79z" />
<glyph unicode="&#xb4;" d="M90 879h-90l139 216h109z" />
<glyph unicode="&#xb8;" d="M84 -325l-31 77q194 9 194 79q0 40 -64 40q-20 0 -46 -4l-19 23l91 121h66l-70 -93q17 2 31 2q43 0 69 -24t26 -62q0 -64 -68.5 -109.5t-178.5 -49.5z" />
<glyph unicode="&#xbb;" horiz-adv-x="733" d="M135 858l249 -337l-249 -336l-79 20l210 316l-210 317zM429 858l249 -337l-249 -336l-79 20l210 316l-210 317z" />
<glyph unicode="&#xc0;" horiz-adv-x="1030" d="M640 1152h-91l-157 216h110zM884 0l-78 175h-581l-78 -175h-130l492 1080h13l492 -1080h-130zM272 279h488l-244 547z" />
<glyph unicode="&#xc2;" horiz-adv-x="1030" d="M515 1292l-141 -130h-100l206 192h70l208 -192h-101zM884 0l-78 175h-581l-78 -175h-130l492 1080h13l492 -1080h-130zM272 279h488l-244 547z" />
<glyph unicode="&#xc6;" horiz-adv-x="1361" d="M1283 946h-505v-337h438v-120h-438v-370h505v-119h-625v183h-417l-96 -183h-128l545 1064h721v-118zM297 290h361v660h-17z" />
<glyph unicode="&#xc7;" horiz-adv-x="1001" d="M968 143q-155 -154 -358 -157l-51 -68q18 2 31 2q44 0 70 -24t26 -62q0 -64 -68.5 -109.5t-179.5 -49.5l-31 77q194 9 194 79q0 40 -64 40q-20 0 -45 -4l-19 23l74 99q-67 7 -130 30.5t-117.5 60t-99.5 85.5t-77 106t-49.5 124t-17.5 136q0 88 28 171.5t79 151t118 118.5 t150.5 79t171.5 28q100 -1 196 -44t169 -117l-70 -94q-39 40 -85.5 69.5t-102 46.5t-112.5 17q-79 0 -155.5 -33t-135 -89t-94 -136t-35.5 -167.5t35.5 -167.5t93.5 -135.5t135 -88.5t158 -33q165 0 299 132z" />
<glyph unicode="&#xc8;" horiz-adv-x="815" d="M542 1152h-91l-157 216h110zM737 946h-505v-337h438v-120h-438v-370h505v-119h-625v1064h625v-118z" />
<glyph unicode="&#xc9;" horiz-adv-x="815" d="M566 1367l-157 -216h-90l138 216h109zM737 946h-505v-337h438v-120h-438v-370h505v-119h-625v1064h625v-118z" />
<glyph unicode="&#xca;" horiz-adv-x="815" d="M418 1292l-142 -130h-100l207 192h69l208 -192h-100zM737 946h-505v-337h438v-120h-438v-370h505v-119h-625v1064h625v-118z" />
<glyph unicode="&#xcb;" horiz-adv-x="815" d="M271 1194q-16 0 -30 8t-22 21.5t-8 29.5q0 24 17.5 41.5t42.5 17.5q23 0 40.5 -17.5t17.5 -41.5t-17.5 -41.5t-40.5 -17.5zM566.5 1194q-24.5 0 -41.5 17t-17 41.5t17 42t41 17.5q25 0 42.5 -17.5t17.5 -42t-17.5 -41.5t-42 -17zM737 946h-505v-337h438v-120h-438v-370 h505v-119h-625v1064h625v-118z" />
<glyph unicode="&#xce;" horiz-adv-x="344" d="M-69 1162l206 192h70l207 -192h-100l-142 130l-142 -130h-99zM112 0v1064h120v-1064h-120z" />
<glyph unicode="&#xcf;" horiz-adv-x="344" d="M24 1194q-24 0 -41.5 17t-17.5 41.5t17.5 42t41.5 17.5t41.5 -17.5t17.5 -41.5t-17.5 -41.5t-41.5 -17.5zM320 1194q-24 0 -41.5 17t-17.5 41.5t17.5 42t41.5 17.5t42 -17.5t18 -42t-18 -41.5t-42 -17zM112 0v1064h120v-1064h-120z" />
<glyph unicode="&#xd4;" horiz-adv-x="1205" d="M361 1162l207 192h69l208 -192h-101l-141 130l-142 -130h-100zM602 -14q-110 0 -211 43.5t-174.5 116.5t-117 174t-43.5 211q0 111 43.5 212.5t117 175t174.5 117t212 43.5q110 0 211.5 -43.5t175 -117t117 -175t43.5 -212.5q0 -110 -43.5 -211t-117 -174t-175 -116.5 t-212.5 -43.5zM602 108q115 0 213.5 56.5t155.5 154.5t57 213t-57 213.5t-155.5 155.5t-213.5 57t-213 -57t-154.5 -155.5t-56.5 -213.5t56.5 -213t154.5 -154.5t213 -56.5z" />
<glyph unicode="&#xd9;" horiz-adv-x="990" d="M529 1152l-157 216h109l138 -216h-90zM495 -16q-111 0 -201.5 55t-141.5 153.5t-51 220.5v651h121v-650q0 -134 77.5 -221.5t195.5 -87.5t195.5 87.5t77.5 221.5v650h121v-651q0 -122 -51 -220.5t-141 -153.5t-202 -55z" />
<glyph unicode="&#xdb;" horiz-adv-x="990" d="M253 1162l207 192h69l208 -192h-100l-142 130l-142 -130h-100zM495 -16q-111 0 -201.5 55t-141.5 153.5t-51 220.5v651h121v-650q0 -134 77.5 -221.5t195.5 -87.5t195.5 87.5t77.5 221.5v650h121v-651q0 -122 -51 -220.5t-141 -153.5t-202 -55z" />
<glyph unicode="&#xdc;" horiz-adv-x="990" d="M347 1194q-24 0 -41.5 17t-17.5 41.5t17.5 42t41.5 17.5t41.5 -17.5t17.5 -41.5q0 -16 -8 -29.5t-21.5 -21.5t-29.5 -8zM643 1194q-24 0 -41.5 17t-17.5 41.5t17.5 42t41.5 17.5t41.5 -17.5t17.5 -42t-17.5 -41.5t-41.5 -17zM495 -16q-111 0 -201.5 55t-141.5 153.5 t-51 220.5v651h121v-650q0 -134 77.5 -221.5t195.5 -87.5t195.5 87.5t77.5 221.5v650h121v-651q0 -122 -51 -220.5t-141 -153.5t-202 -55z" />
<glyph unicode="&#x152;" horiz-adv-x="1691" d="M1613 946h-505v-337h438v-120h-438v-370h505v-119h-625v199q-69 -100 -176.5 -156.5t-233.5 -56.5q-84 0 -163 27.5t-143 78.5t-113 118t-76 150t-27 171q0 74 19 145.5t53.5 131t83 110.5t105.5 86.5t124 55t137 19.5q127 0 234 -55t176 -155v195h625v-118zM584 108 q79 0 152.5 31t129 85.5t89 135t33.5 172.5q0 96 -33.5 177.5t-89 135t-128.5 83.5t-153 30q-109 0 -203 -57t-148.5 -155.5t-54.5 -213.5t54.5 -213t148.5 -154.5t203 -56.5z" />
<glyph unicode="&#x178;" horiz-adv-x="905" d="M306 1194q-25 0 -42.5 17t-17.5 41.5t17.5 42t42.5 17.5q23 0 40.5 -17.5t17.5 -41.5q0 -16 -8 -29.5t-21.5 -21.5t-28.5 -8zM601.5 1194q-24.5 0 -41.5 17t-17 41.5t17 42t41 17.5q25 0 42.5 -17.5t17.5 -42t-17.5 -41.5t-42 -17zM393 0v452l-376 612h135l301 -478 l301 478h135l-377 -612v-452h-119z" />
<glyph unicode="&#x2c6;" d="M-20 890l207 192h69l208 -192h-100l-142 130l-142 -130h-100z" />
<glyph unicode="&#x2da;" d="M142 863q-56 0 -96.5 40.5t-40.5 97.5q0 56 40 96.5t97 40.5q37 0 68.5 -18.5t50 -50t18.5 -68.5q0 -57 -40.5 -97.5t-96.5 -40.5zM142 919q34 0 57.5 24t23.5 58q0 33 -24 57t-57 24t-57 -24t-24 -57q0 -34 24 -58t57 -24z" />
<glyph unicode="&#x2dc;" horiz-adv-x="442" d="M62 904l-62 24q9 37 26 64t38.5 41t42 20t41.5 6q34 0 63 -14.5t46.5 -32.5t41.5 -33t48 -15q31 0 53 23.5t33 64.5l62 -24q-7 -31 -19.5 -54.5t-27.5 -37.5t-33 -23.5t-34.5 -13t-33.5 -3.5q-33 0 -62.5 15t-47 33t-41.5 32.5t-48 14.5q-62 0 -86 -87z" />
<glyph unicode="&#x2000;" horiz-adv-x="684" />
<glyph unicode="&#x2001;" horiz-adv-x="1368" />
<glyph unicode="&#x2002;" horiz-adv-x="684" />
<glyph unicode="&#x2003;" horiz-adv-x="1368" />
<glyph unicode="&#x2004;" horiz-adv-x="456" />
<glyph unicode="&#x2005;" horiz-adv-x="342" />
<glyph unicode="&#x2006;" horiz-adv-x="228" />
<glyph unicode="&#x2007;" horiz-adv-x="228" />
<glyph unicode="&#x2008;" horiz-adv-x="171" />
<glyph unicode="&#x2009;" horiz-adv-x="273" />
<glyph unicode="&#x200a;" horiz-adv-x="76" />
<glyph unicode="&#x2010;" horiz-adv-x="633" d="M56 465v107h522v-107h-522z" />
<glyph unicode="&#x2011;" horiz-adv-x="633" d="M56 465v107h522v-107h-522z" />
<glyph unicode="&#x2012;" horiz-adv-x="633" d="M56 465v107h522v-107h-522z" />
<glyph unicode="&#x2013;" horiz-adv-x="934" d="M63 465v107h809v-107h-809z" />
<glyph unicode="&#x2014;" horiz-adv-x="1351" d="M46 465v107h1260v-107h-1260z" />
<glyph unicode="&#x2018;" horiz-adv-x="318" d="M216 1083q19 0 31.5 -7t12.5 -15q-15 0 -33 -7.5t-37 -23t-31.5 -44.5t-12.5 -65q0 -31 12 -49q20 0 38 -9t29.5 -27t11.5 -41q0 -36 -25.5 -62t-63.5 -26q-39 0 -67 34.5t-28 101.5q0 102 49.5 171t113.5 69z" />
<glyph unicode="&#x2019;" horiz-adv-x="318" d="M101 715q-19 0 -31.5 7.5t-12.5 15.5q15 0 33.5 7.5t37.5 23t31.5 44t12.5 65.5q0 29 -12 49q-32 0 -55.5 21t-23.5 56q0 36 25.5 62t63.5 26q39 0 67 -34.5t28 -101.5q0 -103 -50 -172t-114 -69z" />
<glyph unicode="&#x201a;" horiz-adv-x="318" d="M101 -213q-19 0 -31.5 7.5t-12.5 14.5q15 0 33.5 8t37.5 23.5t31.5 44t12.5 65.5q0 29 -12 49q-31 0 -55 21t-24 56q0 36 25.5 62t63.5 26q39 0 67 -34.5t28 -101.5q0 -68 -24 -124t-61.5 -86.5t-78.5 -30.5z" />
<glyph unicode="&#x201c;" horiz-adv-x="557" d="M216 1080q10 0 18.5 -2t14 -5.5t8.5 -7t3 -6.5q-15 0 -33 -8t-37 -23.5t-31.5 -44t-12.5 -65.5q0 -31 12 -49q31 0 55 -21t24 -56q0 -18 -7 -34t-18.5 -28t-28 -19t-35.5 -7q-39 0 -67 34.5t-28 101.5q0 68 24 124t61 86t78 30zM456 1080q19 0 31.5 -7t12.5 -14 q-15 0 -33 -8t-37 -23.5t-32 -44t-13 -65.5q0 -31 12 -49q32 0 56 -21t24 -56q0 -36 -26 -62t-63 -26q-39 0 -67 34.5t-28 101.5q0 68 23.5 124t61 86t78.5 30z" />
<glyph unicode="&#x201d;" horiz-adv-x="557" d="M101 713q-19 0 -31.5 7.5t-12.5 15.5q15 0 33.5 7.5t37.5 23t31.5 44t12.5 65.5q0 29 -12 49q-32 0 -55.5 21t-23.5 56q0 36 25.5 62t63.5 26q39 0 67 -34.5t28 -101.5q0 -103 -50 -172t-114 -69zM341 713q-19 0 -31.5 7.5t-12.5 15.5q15 0 33.5 7.5t37 23t31.5 44 t13 65.5q0 29 -13 49q-31 0 -54.5 21t-23.5 56q0 23 11 43.5t31.5 32.5t45.5 12q39 0 67 -34.5t28 -101.5q0 -68 -23.5 -124t-61 -86.5t-78.5 -30.5z" />
<glyph unicode="&#x201e;" horiz-adv-x="557" d="M101 -214q-19 0 -31.5 7t-12.5 14q15 0 33.5 8t37.5 23.5t31.5 44t12.5 65.5q0 29 -12 49q-31 0 -55 21t-24 56q0 36 25.5 62t63.5 26q39 0 67 -34.5t28 -101.5q0 -103 -50 -171.5t-114 -68.5zM341 -214q-19 0 -31.5 7t-12.5 14q15 0 33.5 8t37 23.5t31.5 44t13 65.5 q0 29 -13 49q-31 0 -54.5 21t-23.5 56q0 36 25.5 62t62.5 26q39 0 67 -34.5t28 -101.5q0 -52 -14 -97.5t-37 -76.5t-52.5 -48.5t-59.5 -17.5z" />
<glyph unicode="&#x2022;" horiz-adv-x="654" d="M327.5 367q-61.5 0 -105.5 43.5t-44 104.5t44 104.5t105 43.5q41 0 75.5 -20t54.5 -54t20 -74q0 -61 -44 -104.5t-105.5 -43.5z" />
<glyph unicode="&#x2026;" horiz-adv-x="1250" d="M220 -27q-36 0 -62 25.5t-26 61.5t26 61.5t62 25.5q35 0 61 -25.5t26 -61.5t-26 -61.5t-61 -25.5zM626 -27q-24 0 -44 11.5t-32 31.5t-12 44q0 36 26 61.5t62 25.5q35 0 61 -25.5t26 -61.5t-26 -61.5t-61 -25.5zM1032 -27q-37 0 -62.5 25.5t-25.5 61.5t25.5 61.5 t62.5 25.5q35 0 61 -25.5t26 -61.5t-26 -61.5t-61 -25.5z" />
<glyph unicode="&#x202f;" horiz-adv-x="273" />
<glyph unicode="&#x2039;" horiz-adv-x="440" d="M384 838l-210 -317l210 -316l-79 -20l-249 336l249 337z" />
<glyph unicode="&#x203a;" horiz-adv-x="440" d="M135 858l249 -337l-249 -336l-79 20l210 316l-210 317z" />
<glyph unicode="&#x205f;" horiz-adv-x="342" />
<glyph unicode="&#x20ac;" horiz-adv-x="1137" d="M713 107q164 0 299 132l69 -96q-158 -157 -365 -157q-127 0 -240 56t-190.5 154.5t-103.5 220.5h-126l11 67h104q-2 24 -2 47q0 26 3 58h-116l11 67h116q29 119 106 215.5t189 152t237 55.5q101 -1 196.5 -44t169.5 -117l-70 -94q-60 61 -137.5 97t-162.5 36 q-132 0 -246 -84.5t-155 -216.5h522l-11 -67h-527q-4 -28 -4 -58q0 -26 3 -47h521l-11 -67h-497q39 -136 154.5 -223t252.5 -87z" />
<glyph unicode="&#x2122;" horiz-adv-x="859" d="M841 1072h6v-460h-51v307l-170 -299l-171 299v-307h-50v460h6l215 -359zM36 1013v51h313v-51h-131v-401h-51v401h-131z" />
<glyph unicode="&#x25fc;" horiz-adv-x="1062" d="M0 1063h1063v-1063h-1063v1063z" />
</font>
</defs>
</svg>
