<?xml version="1.0" standalone="no"?>
<!DOCTYPE svg PUBLIC "-//W3C//DTD SVG 1.1//EN" "http://www.w3.org/Graphics/SVG/1.1/DTD/svg11.dtd" >
<svg xmlns="http://www.w3.org/2000/svg" xmlns:xlink="http://www.w3.org/1999/xlink" version="1.1">
<metadata></metadata>
<defs>
<font id="lemon_milkregular" horiz-adv-x="396" >
<font-face units-per-em="2048" ascent="1638" descent="-410" />
<missing-glyph horiz-adv-x="500" />
<glyph horiz-adv-x="0" />
<glyph horiz-adv-x="682" />
<glyph unicode=" " />
<glyph unicode="!" horiz-adv-x="429" d="M144 338l-27 726h192l-25 -726h-140zM214.5 -30q-46.5 0 -79.5 32.5t-33 78.5t33 78t78 32q47 0 80.5 -33t33.5 -79t-33 -77.5t-79.5 -31.5z" />
<glyph unicode="&#x22;" horiz-adv-x="505" d="M86 744l-35 347h168l-36 -347h-97zM321 744l-35 347h168l-36 -347h-97z" />
<glyph unicode="#" horiz-adv-x="1001" d="M948 637h-168l-32 -248h171l-18 -126h-170l-35 -263h-135l34 263h-250l-35 -263h-135l34 263h-172l16 126h173l33 248h-176l18 126h174l40 301h135l-39 -301h250l40 301h135l-39 -301h168zM612 389l33 248h-251l-32 -248h250z" />
<glyph unicode="$" horiz-adv-x="829" d="M789 292q0 -122 -84.5 -203.5t-220.5 -101.5v-137h-126v135q-110 11 -192.5 64.5t-124.5 137.5l132 94q29 -50 77 -82.5t108 -43.5v345h-1q-34 15 -54.5 25t-51.5 27t-50.5 32t-42 37.5t-35 46t-21 54.5t-8.5 65q0 111 73.5 189t190.5 100v117h126v-113q64 -6 116 -31 t89 -64.5t56 -91.5l-124 -86q-13 28 -34 50.5t-47 36.5t-56 20v-297l6 -2q46 -20 81 -38t71 -41t61 -47.5t45.5 -54t30.5 -65.5t10 -77zM262 783q0 -36 24 -61.5t72 -48.5v232q-29 -11 -50.5 -29.5t-33.5 -42.5t-12 -50zM484 158q62 14 99.5 49t37.5 82q0 31 -19 59.5 t-47.5 50t-70.5 43.5v-284z" />
<glyph unicode="%" horiz-adv-x="1154" d="M298 583q-101 0 -174 72.5t-73 174t73 174t174 72.5q50 0 95.5 -19.5t78.5 -52.5t52.5 -78.5t19.5 -95.5q0 -101 -72.5 -174t-173.5 -73zM140 0l726 1065h141l-725 -1065h-142zM298 694q56 0 96 40t40 96t-40 96t-96 40q-57 0 -97 -40t-40 -96t40 -96t97 -40zM856 -13 q-101 0 -173.5 72.5t-72.5 173.5q0 102 72.5 174.5t174.5 72.5q101 0 174 -72.5t73 -174t-73 -174t-175 -72.5zM856 97q57 0 96.5 40t39.5 97q0 56 -39.5 95.5t-95.5 39.5q-57 0 -97.5 -40t-40.5 -96t40.5 -96t96.5 -40z" />
<glyph unicode="&#x26;" horiz-adv-x="1019" d="M989 146v-155q-107 1 -272 111q-121 -122 -302 -122q-87 0 -158 29.5t-114.5 77.5t-67.5 106t-24 119q0 92 52.5 177.5t127.5 128.5q-65 120 -65 204q0 49 22 97.5t59 86.5t90 61t110 23q106 0 184 -70t94 -169l-162 -30q-6 49 -41 82t-80 33q-46 0 -78.5 -34.5 t-32.5 -85.5q0 -88 100.5 -228t238.5 -261q39 87 44 205l157 2q-4 -179 -69 -310q117 -78 187 -78zM407 143q103 0 176 62q-160 136 -273 291q-100 -71 -100 -174q0 -51 22 -91t67 -64t108 -24z" />
<glyph unicode="'" horiz-adv-x="269" d="M86 744l-35 347h168l-36 -347h-97z" />
<glyph unicode="(" horiz-adv-x="440" d="M237 -79q-186 253 -186 618q0 352 173 604h152q-72 -118 -119 -288.5t-47 -315.5q0 -152 51 -327t128 -291h-152z" />
<glyph unicode=")" horiz-adv-x="440" d="M203 -79h-152q77 116 128 291t51 327q0 145 -47 315.5t-118 288.5h151q173 -252 173 -604q0 -365 -186 -618z" />
<glyph unicode="*" horiz-adv-x="560" d="M224 624l19 184l-131 -109l-61 88l171 84l-171 83l61 88l131 -109l-19 184h113l-20 -184l132 109l61 -88l-171 -86l171 -81l-61 -88l-132 108l20 -183h-113z" />
<glyph unicode="+" horiz-adv-x="847" d="M745 574v-156h-243v-283h-156v283h-244v156h244v282h156v-282h243z" />
<glyph unicode="," horiz-adv-x="409" d="M141 -244q-18 0 -32.5 6t-21.5 13t-7 12q18 0 38 8t39.5 23.5t32 42.5t12.5 61q0 33 -11 51q-23 0 -45.5 11t-39 35t-16.5 56q0 24 9 45.5t25 37.5t38 25.5t47 9.5q53 0 88.5 -43.5t35.5 -125.5q0 -110 -55 -189t-137 -79z" />
<glyph unicode="-" horiz-adv-x="623" d="M51 446v146h522v-146h-522z" />
<glyph unicode="." horiz-adv-x="377" d="M189 -30q-46 0 -79 32.5t-33 78.5t33 79t79 33q45 0 78.5 -33t33.5 -79t-33 -78.5t-79 -32.5z" />
<glyph unicode="/" horiz-adv-x="607" d="M15 -79l429 1222h148l-430 -1222h-147z" />
<glyph unicode="0" horiz-adv-x="970" d="M485.5 -15q-127.5 0 -226.5 69.5t-153.5 194t-54.5 283.5t54.5 283.5t153.5 194.5t226.5 70t227 -70t153.5 -194.5t54 -283.5t-54 -283.5t-153.5 -194t-227 -69.5zM485 153q120 0 193.5 106t73.5 273q0 110 -33 196.5t-94 135t-140 48.5q-120 0 -193.5 -106t-73.5 -274 t73.5 -273.5t193.5 -105.5z" />
<glyph unicode="1" horiz-adv-x="464" d="M314 1074h48v-1074h-167v859l-144 -43v175z" />
<glyph unicode="2" horiz-adv-x="899" d="M407 166h442v-166h-798v36q335 271 475.5 421.5t140.5 246.5q0 87 -60.5 148t-138.5 61q-93 0 -158.5 -66t-65.5 -161l-152 37q0 73 29 139.5t79 114t118.5 75.5t144.5 28q102 0 188 -51t135 -135.5t49 -181.5q0 -133 -119.5 -278.5t-308.5 -267.5z" />
<glyph unicode="3" horiz-adv-x="823" d="M578 593q87 -31 140.5 -101t53.5 -175q0 -86 -47.5 -161.5t-130 -120.5t-181.5 -45q-128 0 -231 76t-131 187l164 42q10 -40 38.5 -72t69.5 -50t86 -18q83 0 138.5 52.5t55.5 121.5q0 96 -87.5 153.5t-226.5 56.5l26 98q63 0 115.5 18.5t85.5 55.5t33 86q0 58 -41.5 96 t-100.5 38q-33 0 -62 -14.5t-48.5 -39.5t-25.5 -57l-171 35q23 100 108 169.5t200 69.5q83 0 153.5 -36.5t113 -102.5t42.5 -146q0 -77 -39.5 -134t-99.5 -82z" />
<glyph unicode="4" horiz-adv-x="898" d="M867 395v-167h-117v-228h-166v228h-569l394 839h176l-319 -672h318v342h166v-342h117z" />
<glyph unicode="5" horiz-adv-x="857" d="M437 742q166 0 268 -104t102 -264q0 -84 -31 -155.5t-83.5 -121.5t-124.5 -78t-152 -28q-118 0 -219.5 61.5t-145.5 162.5l165 52q27 -48 82 -79t111 -31t106 23.5t84 74.5t34 119q0 93 -60.5 149.5t-158.5 56.5q-73 0 -138 -34t-95 -91l-94 57l79 553h548v-167h-422 l-34 -219q68 63 179 63z" />
<glyph unicode="6" horiz-adv-x="850" d="M473 682q62 0 121 -25t105 -68t73.5 -106.5t27.5 -136.5q0 -95 -50 -178t-137 -132.5t-189 -49.5q-104 0 -188.5 44t-134.5 125t-50 184q0 27 3 49t15.5 54.5t25.5 60t45.5 86t63.5 112t90.5 158t115.5 205.5l189 -1l-233 -401q52 20 107 20zM426 152q85 0 146.5 60 t61.5 140q0 54 -28 100.5t-75.5 74t-103.5 27.5q-86 0 -147.5 -60t-61.5 -143q0 -80 61.5 -139.5t146.5 -59.5z" />
<glyph unicode="7" horiz-adv-x="773" d="M31 1064h727v-31l-426 -1033h-176l365 901h-490v163z" />
<glyph unicode="8" horiz-adv-x="828" d="M414 -17q-78 0 -146.5 27.5t-115.5 73.5t-74 107t-27 128q0 58 21 110t53.5 87t69.5 57.5t71 27.5q-41 8 -77 37t-58.5 75t-22.5 98q0 53 23 102t62.5 86.5t97.5 60t123 22.5q132 0 220 -80.5t88 -190.5q0 -79 -50 -138.5t-108 -71.5q32 -6 68 -28t69 -57t54.5 -87 t21.5 -111q0 -67 -27.5 -128.5t-74.5 -107t-115.5 -72.5t-145.5 -27zM415 675q59 0 102.5 33.5t43.5 90.5q0 59 -41.5 93.5t-104.5 34.5q-40 0 -73 -15t-53 -44t-20 -67t20.5 -67t53.5 -44t72 -15zM413 149q82 0 139 52.5t57 127.5q0 73 -57.5 126t-136.5 53 q-80 0 -138.5 -53t-58.5 -127.5t57 -126.5t138 -52z" />
<glyph unicode="9" horiz-adv-x="850" d="M425 1078q77 0 147 -30t119.5 -79.5t79 -116.5t29.5 -139q0 -39 -7 -71t-18 -62.5t-42.5 -86.5t-63 -108t-98 -164.5t-129.5 -221.5h-191l226 391q-48 -18 -100 -18q-63 0 -122 26t-104 70.5t-72.5 109t-27.5 137.5q0 71 29.5 138t79 116.5t119.5 79t146 29.5zM424 510 q86 0 147.5 59.5t61.5 142.5q0 52 -28 98t-76 74t-104 28q-85 0 -146 -60t-61 -140q0 -83 60.5 -142.5t145.5 -59.5z" />
<glyph unicode=":" horiz-adv-x="377" d="M189 511q-46 0 -79 32.5t-33 78.5t33 79.5t79 33.5t79 -33.5t33 -79.5t-33 -78.5t-79 -32.5zM189 0q-30 0 -56 15t-41 41t-15 56q0 46 33 79t79 33q45 0 78.5 -33t33.5 -79t-33 -79t-79 -33z" />
<glyph unicode=";" horiz-adv-x="420" d="M202 511q-46 0 -79 32.5t-33 78.5t33 79.5t79 33.5t79 -33.5t33 -79.5t-33 -78.5t-79 -32.5zM152 -244q-26 0 -43.5 11t-17.5 20q18 0 38 8t39.5 23.5t32.5 42.5t13 61q0 31 -12 51q-37 0 -68.5 27.5t-31.5 74.5q0 32 15 59t42.5 43t60.5 16q53 0 88.5 -43.5t35.5 -125.5 q0 -110 -55 -189t-137 -79z" />
<glyph unicode="&#x3c;" horiz-adv-x="840" d="M734 129l-632 408v13l637 408l-5 -175l-395 -239l395 -240v-175z" />
<glyph unicode="=" horiz-adv-x="891" d="M102 620v147h687v-147h-687zM102 260v147h687v-147h-687z" />
<glyph unicode="&#x3e;" horiz-adv-x="840" d="M108 129v175l394 240l-394 239l-6 175l637 -408v-13z" />
<glyph unicode="?" horiz-adv-x="698" d="M233 337v19q0 36 10 70t26 62t43 58t55.5 55t67.5 56q25 19 42 52.5t17 69.5q0 72 -50 115t-130 43q-66 0 -123 -32.5t-79 -84.5l-61 132q12 22 31.5 44t51.5 47t81.5 40.5t107.5 15.5q69 0 130.5 -25.5t103.5 -66.5t66 -93t24 -104q0 -139 -87 -225q-18 -17 -46.5 -38 t-47 -36t-37 -36t-28.5 -48.5t-11 -62.5q0 -17 1 -27h-158zM314 -30q-47 0 -79.5 32.5t-32.5 78.5q0 30 15 55.5t40.5 40t55.5 14.5q46 0 79.5 -33t33.5 -79t-33 -77.5t-79 -31.5z" />
<glyph unicode="@" horiz-adv-x="1519" d="M699 -304q-130 0 -238 33.5t-183 91t-126.5 135.5t-76 166t-24.5 184q0 161 64.5 309t172 255.5t257 171t312.5 63.5q139 0 255.5 -46.5t193.5 -127t119.5 -188t42.5 -229.5q0 -78 -18 -155t-53 -144t-82.5 -118t-110.5 -80.5t-133 -29.5q-99 0 -146.5 64.5t-42.5 176.5 q-10 -55 -71.5 -92.5t-134.5 -37.5q-97 0 -156.5 68.5t-59.5 176.5q0 88 36 166.5t102.5 127.5t148.5 49q69 -1 117.5 -36t48.5 -85l37 115h117l-51 -409q-2 -18 -2 -40q0 -53 20.5 -85t64.5 -32q46 0 85.5 35t63.5 90.5t37 120t13 127.5q0 109 -36.5 197t-101 144 t-149 85.5t-182.5 28.5q-125 0 -238.5 -49.5t-195.5 -132.5t-131 -197t-49 -239q0 -80 22 -152t65 -130.5t103 -101.5t139.5 -66t170.5 -23q87 0 159 30l45 -144q-56 -22 -105 -31.5t-115 -9.5zM729 231q35 0 66 15.5t52.5 41.5t34 60t12.5 70q0 58 -33.5 96t-92.5 38 q-73 0 -123 -55t-50 -129q0 -59 36.5 -98t97.5 -39z" />
<glyph unicode="A" horiz-adv-x="1041" d="M845 0l-73 162h-503l-73 -162h-181l500 1086h10l501 -1086h-181zM333 305h375l-187 416z" />
<glyph unicode="B" horiz-adv-x="865" d="M581 599q45 0 90 -20t81.5 -55t59.5 -87.5t23 -112.5q0 -62 -23 -119.5t-64.5 -103.5t-106 -73.5t-141.5 -27.5h-398v1064h291q67 0 125 -23t97.5 -61t62 -87.5t22.5 -101.5q0 -79 -42 -135.5t-77 -56.5zM403 902h-134v-266l132 1q61 -1 102 37t41 95q0 56 -42 94.5 t-99 38.5zM485 163q75 0 131 49t56 123q0 64 -51.5 109.5t-138.5 45.5l-213 -1v-326h216z" />
<glyph unicode="C" horiz-adv-x="1000" d="M603 -17q-111 0 -213 43.5t-176 117.5t-118.5 175.5t-44.5 211.5q0 111 44.5 212.5t118 176t175.5 118.5t212 44q206 -3 369 -162l-97 -131q-58 58 -129 91t-147 33q-71 0 -139.5 -30t-121 -81t-84.5 -122.5t-32 -148.5q0 -79 32.5 -150t85 -121t121 -80t139.5 -30 q148 0 276 127l96 -134q-162 -160 -367 -160z" />
<glyph unicode="D" horiz-adv-x="1004" d="M405 1064q254 0 401.5 -143t147.5 -390q0 -245 -147.5 -388t-401.5 -143h-303v1064h303zM407 166q174 0 276 98.5t102 266.5q0 170 -102.5 268.5t-277.5 98.5h-136v-732h138z" />
<glyph unicode="E" horiz-adv-x="807" d="M736 900h-467v-273h403v-166h-403v-295h467v-166h-634v1064h634v-164z" />
<glyph unicode="F" horiz-adv-x="766" d="M736 900h-467v-284h403v-167h-403v-450h-167v1068h634v-167z" />
<glyph unicode="G" horiz-adv-x="1164" d="M1108 581q5 -43 5 -83q0 -116 -40.5 -214t-109 -163.5t-161 -102t-195.5 -36.5q-114 0 -217 43.5t-177 117.5t-118 175t-44 212.5t44 213.5t117.5 176t175 118t213.5 44q100 -1 206 -45.5t181 -117.5l-93 -139q-63 62 -142 97.5t-154 35.5q-58 0 -114 -18t-103.5 -53 t-83.5 -81t-56.5 -106t-20.5 -124q0 -78 30 -148t81 -121t124.5 -81.5t157.5 -30.5q138 0 229 77t91 197v4h-329v153h503z" />
<glyph unicode="H" horiz-adv-x="998" d="M729 1064h167v-1064h-167v449h-460v-449h-167v1064h167v-449h460v449z" />
<glyph unicode="I" horiz-adv-x="371" d="M102 0v1064h167v-1064h-167z" />
<glyph unicode="J" horiz-adv-x="793" d="M270 -20q-133 0 -239 73l85 147q63 -54 155 -54h5q106 0 182.5 77.5t76.5 183.5l-4 657l167 -1l4 -657q0 -117 -57 -215.5t-154.5 -154.5t-213.5 -56h-7z" />
<glyph unicode="K" horiz-adv-x="876" d="M866 0h-204l-393 515v-515h-167v1064h167v-510l365 510h194l-377 -522z" />
<glyph unicode="L" horiz-adv-x="774" d="M269 166h475v-166h-642v1064h167v-898z" />
<glyph unicode="M" horiz-adv-x="1246" d="M1132 1087h12v-1087h-167v590l-353 -572h-1l-354 573v-591h-167v1087h13l509 -773z" />
<glyph unicode="N" horiz-adv-x="1059" d="M790 1067h168v-1085h-8l-681 710v-693h-167v1083h9l679 -709v694z" />
<glyph unicode="O" horiz-adv-x="1202" d="M601 -17q-112 0 -213.5 43.5t-175 117t-117.5 175t-44 212.5q0 89 28 173t79 152t118.5 119t151.5 79t173 28q75 0 146 -19.5t131.5 -55.5t111.5 -87t86.5 -111.5t55.5 -132t20 -145.5q0 -111 -44 -212.5t-118 -175t-176 -117t-213 -43.5zM600.5 152q103.5 0 191.5 51 t139.5 138.5t51.5 190.5q0 77 -30.5 148t-82 122t-122 81.5t-147.5 30.5q-104 0 -191.5 -51t-138.5 -139t-51 -192q0 -103 51 -190.5t138.5 -138.5t191 -51z" />
<glyph unicode="P" horiz-adv-x="862" d="M102 0v1064h356q101 0 187.5 -47t136.5 -128t50 -176q0 -93 -50 -172.5t-136.5 -125.5t-187.5 -46h-189v-369h-167zM458 534q56 0 104 24t75.5 65.5t27.5 90.5q0 50 -27.5 92.5t-75.5 67t-104 24.5h-189v-363z" />
<glyph unicode="Q" horiz-adv-x="1202" d="M1152 531q0 -111 -43 -211t-119 -176q68 -27 151 -31l-17 -163q-153 7 -271 94q-118 -61 -252 -61q-112 0 -213.5 43.5t-175 117t-117.5 175t-44 212.5q0 89 28 173t79 152t118.5 119t151.5 79t173 28q75 0 146 -19.5t131.5 -55.5t111.5 -87t86.5 -111.5t55.5 -132 t20 -145.5zM220 532q0 -103 51 -190.5t138.5 -138.5t191.5 -51q62 0 119 19q-7 8 -20 23l-46.5 52.5t-44 43.5t-50.5 39.5t-52.5 24.5t-62.5 12l11 144q59 -3 107.5 -20t87.5 -48t67 -59.5t66.5 -72.5t63.5 -68q42 35 72 80t47 99t17 111q0 77 -30.5 148t-82 122t-122 81.5 t-147.5 30.5q-104 0 -191.5 -51t-138.5 -139t-51 -192z" />
<glyph unicode="R" horiz-adv-x="902" d="M892 0h-205l-286 412h-131v-412h-167l-1 1064h331q73 0 139.5 -27t115 -72.5t77 -109t28.5 -133.5q0 -102 -59 -184t-151 -112zM269 550h168q75 0 129.5 52.5t54.5 123.5q0 73 -54.5 122.5t-129.5 49.5h-168v-348z" />
<glyph unicode="S" horiz-adv-x="829" d="M409 -18q-128 0 -225 55.5t-143 149.5l132 94q35 -62 98 -96.5t140 -34.5q90 0 150 39.5t60 99.5q0 18 -5.5 35t-19 32.5t-25.5 28t-36 27t-39.5 24t-45.5 23.5t-45 20.5t-48 20.5q-34 15 -54.5 25t-51.5 27t-50.5 32t-42 37.5t-35 46t-21 54.5t-8.5 65q0 52 17 98 t48.5 82t73.5 62t94 40t109 14q113 0 194.5 -51t114.5 -139l-124 -86q-24 53 -74 82.5t-109 29.5q-74 0 -125 -39.5t-51 -96.5q0 -17 5.5 -32.5t19 -29t26 -23t38.5 -22.5t42.5 -20.5t51.5 -21.5q7 -3 11 -4.5t10.5 -4.5t12 -5.5t11.5 -4.5q46 -20 81 -38t71 -41t61 -47.5 t45.5 -54t30.5 -65.5t10 -77q0 -92 -50 -163t-136 -109t-194 -38z" />
<glyph unicode="T" horiz-adv-x="799" d="M769 1064v-166h-285v-898h-168v898h-285v166h738z" />
<glyph unicode="U" horiz-adv-x="988" d="M494 -20q-112 0 -204 54.5t-145 151.5t-53 217v661h168v-660q0 -72 31 -130.5t84.5 -91.5t118.5 -33q98 0 166.5 73t68.5 182v660h168v-661q0 -120 -53 -217t-145.5 -151.5t-204.5 -54.5z" />
<glyph unicode="V" horiz-adv-x="1022" d="M828 1064h178l-491 -1086h-11l-489 1086h178l317 -720z" />
<glyph unicode="W" horiz-adv-x="1279" d="M354 -10l-339 1074h180l198 -657l243 612h7l243 -611l197 656h180l-338 -1074h-15l-272 642l-269 -642h-15z" />
<glyph unicode="X" horiz-adv-x="908" d="M15 0l342 552l-319 512h193l224 -364l222 364h193l-319 -511l342 -553h-191l-248 401l-247 -401h-192z" />
<glyph unicode="Y" horiz-adv-x="902" d="M368 0v455l-353 609h188l248 -424l248 424h188l-353 -609v-455h-166z" />
<glyph unicode="Z" horiz-adv-x="871" d="M61 0l483 898h-483v166h749l-482 -898h482v-166h-749z" />
<glyph unicode="[" horiz-adv-x="461" d="M411 1017h-164v-969h164v-127h-309v1222h309v-126z" />
<glyph unicode="\" horiz-adv-x="607" d="M592 -79h-147l-429 1222h147z" />
<glyph unicode="]" horiz-adv-x="461" d="M359 1143v-1222h-308v127h164v969h-164v126h308z" />
<glyph unicode="^" horiz-adv-x="630" d="M15 722l293 385h13l293 -385h-147l-152 200l-153 -200h-147z" />
<glyph unicode="_" horiz-adv-x="797" d="M0 -58v117h798v-117h-798z" />
<glyph unicode="`" d="M157 880l-157 216h147l131 -216h-121z" />
<glyph unicode="i" horiz-adv-x="371" d="M102 0v1064h167v-1064h-167z" />
<glyph unicode="{" horiz-adv-x="574" d="M372 -79q-72 0 -123.5 60.5t-51.5 146.5v123q0 64 -19 117.5t-52.5 85t-74.5 31.5v102q62 0 104 68.5t42 166.5v115q0 85 51.5 145.5t123.5 60.5h152v-126l-109 -2q-31 0 -52.5 -43.5t-21.5 -103.5v-67q0 -109 -41.5 -186.5t-99.5 -77.5q58 0 99.5 -78t41.5 -187v-75 q0 -62 21.5 -105.5t52.5 -43.5h109v-127h-152z" />
<glyph unicode="|" horiz-adv-x="415" d="M157 -297v1518h102v-1518h-102z" />
<glyph unicode="}" horiz-adv-x="574" d="M203 -79h-152v127h109q30 0 52 43.5t22 105.5v75q0 109 41.5 187t100.5 78q-59 0 -100.5 77.5t-41.5 186.5v67q0 60 -22 103.5t-52 43.5l-109 2v126h152q72 0 124 -60.5t52 -145.5v-115q0 -64 18.5 -118t52 -85.5t74.5 -31.5v-102q-62 0 -103.5 -68.5t-41.5 -165.5v-123 q0 -86 -52 -146.5t-124 -60.5z" />
<glyph unicode="~" horiz-adv-x="990" d="M226 395l-124 49q8 33 19 61t25 49t29.5 37.5t33 27.5t34.5 19t35 12t33.5 5.5t30.5 1.5q41 0 77.5 -13.5t63 -33.5t51 -39.5t52 -33.5t56.5 -14q83 0 115 128l123 -47q-11 -53 -33 -92.5t-46.5 -62t-54.5 -36.5t-54.5 -18.5t-50.5 -4.5q-41 0 -77.5 14t-63 33.5t-51 39 t-52 33.5t-56.5 14q-83 0 -115 -129z" />
<glyph unicode="&#xa0;" />
<glyph unicode="&#xa2;" horiz-adv-x="790" d="M743 173q-96 -85 -231 -98v-138l-136 -2v148q-142 32 -235.5 146t-93.5 266t93.5 266t235.5 146v149l136 1v-142q127 -13 221 -90l-89 -133q-51 50 -132 63v-519q81 13 135 64zM206 495q0 -86 47.5 -152t122.5 -94v492q-49 -18 -87 -53.5t-60.5 -85.5t-22.5 -107z" />
<glyph unicode="&#xa3;" horiz-adv-x="796" d="M307 150h438v-150h-690v150h82q67 101 67 218q0 36 -13 83h-136v121h101q-15 62 -15 121q-1 78 26 147.5t75.5 122.5t122 84t160.5 31q47 0 103 -13.5t102 -38.5l-81 -140q-20 18 -52 29.5t-65 11.5q-54 0 -97.5 -20t-70.5 -53.5t-41.5 -75t-14.5 -86.5q0 -60 16 -120 h238v-121h-202q10 -46 10 -83q0 -127 -63 -218z" />
<glyph unicode="&#xa5;" horiz-adv-x="974" d="M923 1064l-288 -496h269v-130h-334v-88h334v-130h-334v-220h-166v220h-325v130h325v88h-325v130h260l-288 496h189l247 -424l248 424h188z" />
<glyph unicode="&#xa8;" d="M47 912q-28 0 -49 20.5t-21 48.5t21 49t49 21t48.5 -21t20.5 -49t-20.5 -48.5t-48.5 -20.5zM343 912q-29 0 -49 20.5t-20 48.5t20.5 49t48.5 21t48.5 -21t20.5 -49q0 -19 -9 -34.5t-25.5 -25t-34.5 -9.5z" />
<glyph unicode="&#xa9;" horiz-adv-x="1147" d="M574 -59q-107 0 -204 41.5t-167 111.5t-111 167t-41 204t41 203.5t110.5 166.5t166.5 111t205 41q87 0 167 -26.5t144 -75t112 -113t74 -143.5t26 -164q0 -108 -41.5 -205.5t-111.5 -167t-167 -110.5t-203 -41zM574 26q89 0 170 35t140 93.5t94 140t35 170t-35 170 t-94 140.5t-140 94t-170 35q-88 0 -169.5 -35t-140.5 -94t-94 -140.5t-35 -170t35.5 -169.5t94.5 -140t140 -94t169 -35zM585 145q-86 0 -160 41.5t-119 116.5t-45 166q0 67 26.5 128t70.5 103.5t103.5 67.5t123.5 25q114 0 204 -71l-69 -103q-24 24 -60 38t-75 14 q-81 0 -141 -58t-60 -144t60 -144t141 -58q38 0 75 14.5t62 37.5l75 -98q-43 -36 -98.5 -56t-113.5 -20z" />
<glyph unicode="&#xab;" horiz-adv-x="780" d="M408 847l-198 -322l198 -322l-106 -24l-251 346l251 346zM730 847l-199 -322l199 -322l-107 -24l-250 346l250 346z" />
<glyph unicode="&#xad;" horiz-adv-x="623" d="M51 446v146h522v-146h-522z" />
<glyph unicode="&#xae;" horiz-adv-x="729" d="M365.5 1064q129.5 0 219 -90t89.5 -218q0 -130 -90.5 -219.5t-218.5 -89.5q-63 0 -120.5 24t-98.5 65.5t-65.5 98.5t-24.5 121q0 128 90 218t219.5 90zM365 496q106 0 182.5 76.5t76.5 182.5q0 107 -76.5 183.5t-182.5 76.5t-182.5 -76.5t-76.5 -183.5q0 -70 35 -129.5 t95 -94.5t129 -35zM479 818q0 -32 -18.5 -57.5t-48.5 -35.5l98 -132h-59l-97 137l-44 12v-149h-48v331h106q46 0 78.5 -31t32.5 -75zM310 761h58q26 0 44 16.5t18 39.5q0 25 -18 42t-44 17h-58v-115z" />
<glyph unicode="&#xb4;" d="M121 880h-121l131 216h147z" />
<glyph unicode="&#xb8;" d="M84 -344l-42 103q183 5 183 69q0 38 -57 38q-17 0 -39 -4l-22 29l95 126h85l-69 -90q17 2 30 2q40 0 66 -27t26 -69q0 -71 -72.5 -122.5t-183.5 -54.5z" />
<glyph unicode="&#xbb;" horiz-adv-x="780" d="M158 871l250 -346l-250 -346l-107 24l198 322l-198 322zM480 871l250 -346l-250 -346l-107 24l199 322l-199 322z" />
<glyph unicode="&#xc0;" horiz-adv-x="1041" d="M660 1152h-121l-157 216h147zM845 0l-73 162h-503l-73 -162h-181l500 1086h10l501 -1086h-181zM333 305h375l-187 416z" />
<glyph unicode="&#xc2;" horiz-adv-x="1041" d="M520 1275l-119 -113h-135l207 192h94l209 -192h-136zM845 0l-73 162h-503l-73 -162h-181l500 1086h10l501 -1086h-181zM333 305h375l-187 416z" />
<glyph unicode="&#xc6;" horiz-adv-x="1357" d="M1286 900h-466v-273h402v-166h-402v-295h466v-166h-633v173h-371l-87 -173h-180l532 1064h739v-164zM358 322h295v578z" />
<glyph unicode="&#xc7;" horiz-adv-x="1000" d="M970 143q-155 -153 -350 -160l-43 -56q17 2 30 2q40 0 66 -27t26 -69q0 -71 -72.5 -122.5t-183.5 -54.5l-42 103q183 5 183 69q0 38 -57 38q-17 0 -39 -4l-22 29l72 96q-134 16 -245.5 92t-176.5 196t-65 256q0 111 44.5 212.5t118 176t175.5 118.5t212 44 q206 -3 369 -162l-97 -131q-58 58 -129 91t-147 33q-71 0 -139.5 -30t-121 -81t-84.5 -122.5t-32 -148.5q0 -79 32.5 -150t85 -121t121 -80t139.5 -30q148 0 276 127z" />
<glyph unicode="&#xc8;" horiz-adv-x="807" d="M544 1152h-120l-157 216h147zM736 900h-467v-273h403v-166h-403v-295h467v-166h-634v1064h634v-164z" />
<glyph unicode="&#xc9;" horiz-adv-x="807" d="M581 1368l-157 -216h-120l130 216h147zM736 900h-467v-273h403v-166h-403v-295h467v-166h-634v1064h634v-164z" />
<glyph unicode="&#xca;" horiz-adv-x="807" d="M405 1275l-120 -113h-135l208 192h93l210 -192h-136zM736 900h-467v-273h403v-166h-403v-295h467v-166h-634v1064h634v-164z" />
<glyph unicode="&#xcb;" horiz-adv-x="807" d="M258 1184q-28 0 -48.5 20.5t-20.5 48.5t20.5 49t48.5 21q19 0 35 -10t25 -26t9 -34q0 -14 -5.5 -27t-14.5 -22t-22 -14.5t-27 -5.5zM554 1184q-28 0 -48.5 20t-20.5 48.5t20.5 49.5t48.5 21t49 -21t21 -49.5t-21 -48.5t-49 -20zM736 900h-467v-273h403v-166h-403v-295 h467v-166h-634v1064h634v-164z" />
<glyph unicode="&#xce;" horiz-adv-x="371" d="M-69 1162l207 192h94l209 -192h-136l-120 113l-120 -113h-134zM102 0v1064h167v-1064h-167z" />
<glyph unicode="&#xcf;" horiz-adv-x="371" d="M38 1184q-29 0 -49.5 20t-20.5 48.5t20.5 49.5t49.5 21q28 0 48.5 -21t20.5 -49t-20.5 -48.5t-48.5 -20.5zM333 1184q-28 0 -48 20t-20 48.5t20.5 49.5t47.5 21q29 0 49.5 -21t20.5 -49q0 -14 -5.5 -27t-15 -22t-22.5 -14.5t-27 -5.5zM102 0v1064h167v-1064h-167z" />
<glyph unicode="&#xd4;" horiz-adv-x="1202" d="M346 1162l207 192h94l209 -192h-136l-120 113l-120 -113h-134zM601 -17q-112 0 -213.5 43.5t-175 117t-117.5 175t-44 212.5q0 89 28 173t79 152t118.5 119t151.5 79t173 28q75 0 146 -19.5t131.5 -55.5t111.5 -87t86.5 -111.5t55.5 -132t20 -145.5q0 -111 -44 -212.5 t-118 -175t-176 -117t-213 -43.5zM600.5 152q103.5 0 191.5 51t139.5 138.5t51.5 190.5q0 77 -30.5 148t-82 122t-122 81.5t-147.5 30.5q-104 0 -191.5 -51t-138.5 -139t-51 -192q0 -103 51 -190.5t138.5 -138.5t191 -51z" />
<glyph unicode="&#xd9;" horiz-adv-x="988" d="M513 1152l-157 216h147l131 -216h-121zM494 -20q-112 0 -204 54.5t-145 151.5t-53 217v661h168v-660q0 -72 31 -130.5t84.5 -91.5t118.5 -33q98 0 166.5 73t68.5 182v660h168v-661q0 -120 -53 -217t-145.5 -151.5t-204.5 -54.5z" />
<glyph unicode="&#xdb;" horiz-adv-x="988" d="M240 1162l207 192h94l209 -192h-136l-120 113l-120 -113h-134zM494 -20q-112 0 -204 54.5t-145 151.5t-53 217v661h168v-660q0 -72 31 -130.5t84.5 -91.5t118.5 -33q98 0 166.5 73t68.5 182v660h168v-661q0 -120 -53 -217t-145.5 -151.5t-204.5 -54.5z" />
<glyph unicode="&#xdc;" horiz-adv-x="988" d="M346.5 1184q-28.5 0 -49 20.5t-20.5 48.5t20.5 49t49 21t49 -21t20.5 -49t-20.5 -48.5t-49 -20.5zM642 1184q-28 0 -48 20t-20 48.5t20 49.5t48 21q29 0 49.5 -21t20.5 -49.5t-20.5 -48.5t-49.5 -20zM494 -20q-112 0 -204 54.5t-145 151.5t-53 217v661h168v-660 q0 -72 31 -130.5t84.5 -91.5t118.5 -33q98 0 166.5 73t68.5 182v660h168v-661q0 -120 -53 -217t-145.5 -151.5t-204.5 -54.5z" />
<glyph unicode="&#x152;" horiz-adv-x="1667" d="M1596 900h-467v-273h403v-166h-403v-295h467v-166h-634v151q-46 -53 -104 -90t-129 -57.5t-148 -20.5q-105 0 -203 43.5t-169.5 117t-114.5 175t-43 212.5t43 213.5t114.5 176.5t169.5 117.5t204 43.5q115 0 212.5 -43.5t167.5 -123.5v149h634v-164zM591 152q74 0 142 29 t118.5 78.5t80.5 121t30 151.5q0 110 -51 198t-135.5 136t-184.5 48t-185.5 -51t-135.5 -139.5t-50 -191.5t50 -190.5t135.5 -138.5t185.5 -51z" />
<glyph unicode="&#x178;" horiz-adv-x="902" d="M304 1184q-29 0 -49.5 20.5t-20.5 48.5t20.5 49t49.5 21q18 0 34 -10t25.5 -26t9.5 -34q0 -14 -5.5 -27t-15 -22t-22.5 -14.5t-26 -5.5zM599 1184q-28 0 -48 20t-20 48.5t20.5 49.5t47.5 21q29 0 49.5 -21t20.5 -49.5t-20.5 -48.5t-49.5 -20zM368 0v455l-353 609h188 l248 -424l248 424h188l-353 -609v-455h-166z" />
<glyph unicode="&#x2c6;" d="M-30 890l208 192h93l209 -192h-135l-121 113l-119 -113h-135z" />
<glyph unicode="&#x2da;" d="M148 859q-59 0 -100.5 42t-41.5 100.5t41.5 100t100.5 41.5q58 0 99.5 -41.5t41.5 -100.5q0 -58 -41.5 -100t-99.5 -42zM148 931q29 0 49.5 20.5t20.5 49.5t-20.5 49.5t-49.5 20.5t-50 -20.5t-21 -49.5t21 -49.5t50 -20.5z" />
<glyph unicode="&#x2dc;" horiz-adv-x="465" d="M82 900l-82 32q9 43 28 73t43.5 44t45.5 19.5t43 5.5q33 0 63 -14t48 -30.5t42 -30.5t47 -14q55 0 77 86l82 -32q-10 -43 -29 -73.5t-43 -44.5t-45 -19.5t-43 -5.5q-33 0 -63 14t-48 31t-41.5 30.5t-46.5 13.5q-57 0 -78 -85z" />
<glyph unicode="&#x2000;" horiz-adv-x="684" />
<glyph unicode="&#x2001;" horiz-adv-x="1368" />
<glyph unicode="&#x2002;" horiz-adv-x="684" />
<glyph unicode="&#x2003;" horiz-adv-x="1368" />
<glyph unicode="&#x2004;" horiz-adv-x="456" />
<glyph unicode="&#x2005;" horiz-adv-x="342" />
<glyph unicode="&#x2006;" horiz-adv-x="228" />
<glyph unicode="&#x2007;" horiz-adv-x="228" />
<glyph unicode="&#x2008;" horiz-adv-x="171" />
<glyph unicode="&#x2009;" horiz-adv-x="273" />
<glyph unicode="&#x200a;" horiz-adv-x="76" />
<glyph unicode="&#x2010;" horiz-adv-x="623" d="M51 446v146h522v-146h-522z" />
<glyph unicode="&#x2011;" horiz-adv-x="623" d="M51 446v146h522v-146h-522z" />
<glyph unicode="&#x2012;" horiz-adv-x="623" d="M51 446v146h522v-146h-522z" />
<glyph unicode="&#x2013;" horiz-adv-x="934" d="M55 446v146h825v-146h-825z" />
<glyph unicode="&#x2014;" horiz-adv-x="1351" d="M38 446v146h1277v-146h-1277z" />
<glyph unicode="&#x2018;" horiz-adv-x="337" d="M227 1082q25 0 41 -10.5t16 -18.5q-16 0 -35 -7.5t-37 -22t-30 -40t-12 -56.5q0 -29 11 -47q34 0 64 -26t30 -69q0 -46 -32 -78t-79 -32q-50 0 -82.5 40.5t-32.5 116.5q0 50 13.5 96t37 79.5t56.5 54t71 20.5z" />
<glyph unicode="&#x2019;" horiz-adv-x="337" d="M111 684q-25 0 -41.5 10t-16.5 19q17 0 36 7.5t37 21.5t30 39.5t12 57.5q0 30 -11 47q-34 0 -64 25.5t-30 69.5q0 45 32 78t79 33q32 0 57.5 -17t41.5 -53.5t16 -87.5q0 -103 -51 -176.5t-127 -73.5z" />
<glyph unicode="&#x201a;" horiz-adv-x="337" d="M111 -206q-25 0 -41.5 10t-16.5 18q17 0 36 7.5t37 22t30 40t12 57.5q0 29 -11 47q-34 0 -64 25.5t-30 69.5q0 45 32 77.5t79 32.5q50 0 82.5 -41t32.5 -116q0 -103 -51 -176.5t-127 -73.5z" />
<glyph unicode="&#x201c;" horiz-adv-x="630" d="M227 1080q25 0 41 -10t16 -19q-16 0 -35 -7t-37 -21.5t-30 -40t-12 -57.5q0 -29 11 -47q34 0 64 -25.5t30 -69.5q0 -45 -32 -77.5t-79 -32.5q-50 0 -82.5 41t-32.5 117q0 103 51 176t127 73zM519 1080q25 0 41.5 -10t16.5 -19q-17 0 -36 -7t-37 -21.5t-29.5 -40 t-11.5 -57.5q0 -29 10 -47q35 0 64.5 -25.5t29.5 -69.5q0 -45 -32 -77.5t-79 -32.5q-49 0 -82 41t-33 117q0 103 51 176t127 73z" />
<glyph unicode="&#x201d;" horiz-adv-x="630" d="M111 682q-25 0 -41.5 10t-16.5 19q17 0 36 7.5t37 21.5t30 39.5t12 57.5q0 30 -11 47q-34 0 -64 25.5t-30 69.5q0 45 32 78t79 33q50 0 82.5 -41t32.5 -117q0 -103 -51 -176.5t-127 -73.5zM403 682q-24 0 -40.5 10t-16.5 19q17 0 35.5 7.5t36.5 21.5t30 39.5t12 57.5 q0 30 -11 47q-21 0 -42 10t-36 32.5t-15 52.5q0 45 31.5 78t79.5 33q49 0 81.5 -41t32.5 -117q0 -103 -51 -176.5t-127 -73.5z" />
<glyph unicode="&#x201e;" horiz-adv-x="630" d="M111 -207q-25 0 -41.5 10t-16.5 18q17 0 36 7.5t37 21.5t30 39.5t12 57.5q0 30 -11 48q-34 0 -64 25.5t-30 69.5q0 45 32 77.5t79 32.5q50 0 82.5 -41t32.5 -117q0 -102 -51 -175.5t-127 -73.5zM403 -207q-24 0 -40.5 10t-16.5 18q17 0 35.5 7.5t36.5 21.5t30 39.5 t12 57.5q0 30 -11 48q-34 0 -63.5 25.5t-29.5 69.5q0 45 31.5 77.5t79.5 32.5q49 0 81.5 -41t32.5 -117q0 -102 -51 -175.5t-127 -73.5z" />
<glyph unicode="&#x2022;" horiz-adv-x="675" d="M337.5 336q-75.5 0 -129 52.5t-53.5 127.5t53.5 128.5t129.5 53.5q75 0 128.5 -53t53.5 -128t-53.5 -128t-129 -53z" />
<glyph unicode="&#x2026;" horiz-adv-x="1356" d="M244 -30q-46 0 -79 32.5t-33 78.5t33 79t79 33t79 -33t33 -79t-33 -78.5t-79 -32.5zM678 -30q-46 0 -79 32.5t-33 78.5t33 79t78.5 33t79 -33t33.5 -79t-33 -78.5t-79 -32.5zM1112 -30q-46 0 -79 32.5t-33 78.5t33 79t79 33t79 -33t33 -79q0 -30 -15 -55.5t-41 -40.5 t-56 -15z" />
<glyph unicode="&#x202f;" horiz-adv-x="273" />
<glyph unicode="&#x2039;" horiz-adv-x="459" d="M408 847l-198 -322l198 -322l-106 -24l-251 346l251 346z" />
<glyph unicode="&#x203a;" horiz-adv-x="459" d="M158 871l250 -346l-250 -346l-107 24l198 322l-198 322z" />
<glyph unicode="&#x205f;" horiz-adv-x="342" />
<glyph unicode="&#x20ac;" horiz-adv-x="1129" d="M706 150q148 0 275 127l97 -134q-161 -160 -367 -160q-127 0 -240 55.5t-191 152t-106 216.5h-123l12 87h97q-1 25 -1 37q0 24 2 48h-110l12 87h113q31 118 108.5 212.5t189 149t235.5 54.5q205 -3 369 -162l-97 -131q-57 58 -128.5 91t-147.5 33q-112 0 -210 -69 t-141 -178h474l-12 -87h-485q-3 -27 -3 -48q0 -20 2 -37h480l-11 -87h-449q41 -113 141 -185t215 -72z" />
<glyph unicode="&#x2122;" horiz-adv-x="859" d="M837 1073h5v-461h-70v250l-150 -242h-1l-150 243v-251h-70v461h5l216 -327zM35 993v71h313v-71h-121v-381h-71v381h-121z" />
<glyph unicode="&#x25fc;" horiz-adv-x="1062" d="M0 1063h1063v-1063h-1063v1063z" />
</font>
</defs>
</svg>
