<?xml version="1.0" standalone="no"?>
<!DOCTYPE svg PUBLIC "-//W3C//DTD SVG 1.1//EN" "http://www.w3.org/Graphics/SVG/1.1/DTD/svg11.dtd" >
<svg xmlns="http://www.w3.org/2000/svg" xmlns:xlink="http://www.w3.org/1999/xlink" version="1.1">
<metadata></metadata>
<defs>
<font id="lemon_milkbold" horiz-adv-x="846" >
<font-face units-per-em="2048" ascent="1638" descent="-410" />
<missing-glyph horiz-adv-x="412" />
<glyph horiz-adv-x="0" />
<glyph horiz-adv-x="682" />
<glyph unicode=" "  horiz-adv-x="412" />
<glyph unicode="&#x09;" horiz-adv-x="412" />
<glyph unicode="&#xa0;" horiz-adv-x="412" />
<glyph unicode="!" horiz-adv-x="525" d="M146 372l-48 692h328l-46 -692h-234zM263 -38q-68 0 -116.5 45.5t-48.5 110.5q0 63 48.5 108t115.5 45q68 0 117 -46.5t49 -109.5q0 -64 -48.5 -108.5t-116.5 -44.5z" />
<glyph unicode="&#x22;" horiz-adv-x="711" d="M110 711l-64 380h284l-65 -380h-155zM446 711l-64 380h283l-64 -380h-155z" />
<glyph unicode="#" horiz-adv-x="1066" d="M1008 602h-145l-23 -178h145l-25 -196h-145l-30 -228h-225l30 228h-185l-29 -228h-226l30 228h-147l25 196h147l23 178h-146l26 196h146l34 266h225l-34 -266h185l34 266h225l-34 -266h145zM615 424l23 178h-185l-23 -178h185z" />
<glyph unicode="$" horiz-adv-x="863" d="M826 314q0 -115 -74.5 -197t-193.5 -114v-151h-220v140q-106 16 -187 66t-114 122l171 168q33 -49 91 -77t125 -28q18 0 35 2.5t32.5 8t26.5 13t18 18.5t7 23q0 13 -8 26.5t-25.5 27t-33.5 24t-46 25t-48 23t-53 23.5q-43 19 -78 39t-68 48t-55 59.5t-35.5 73t-13.5 87.5 q0 107 72.5 188t186.5 113v148h220v-144q84 -19 144 -64t85 -107l-163 -157q-15 27 -45.5 46t-61 27t-58.5 8t-51 -9t-35.5 -24t-12.5 -33q0 -11 4 -19.5t13.5 -16.5t20.5 -14t29 -14t34.5 -14t42 -16.5t46.5 -18.5q276 -116 276 -329z" />
<glyph unicode="%" horiz-adv-x="1246" d="M314 579q-110 0 -189 73t-79 175q0 103 79 176t190 73q110 0 188.5 -73t78.5 -175.5t-79 -175.5t-189 -73zM139 0l731 1065h229l-730 -1065h-230zM314 744q38 0 65 24t27 59q0 17 -7.5 32.5t-20 26.5t-29.5 18t-35 7q-26 0 -47.5 -11.5t-34 -30.5t-12.5 -42 q0 -35 27.5 -59t66.5 -24zM932 -13q-110 0 -189 73t-79 176q0 102 79 175t190 73q110 0 188.5 -72.5t78.5 -175t-79 -176t-189 -73.5zM932 152q19 0 36 6.5t29 18t19.5 27t7.5 32.5q0 34 -27.5 58.5t-65.5 24.5t-65.5 -24.5t-27.5 -58.5q0 -35 27.5 -59.5t66.5 -24.5z" />
<glyph unicode="&#x26;" horiz-adv-x="1077" d="M1050 233l-1 -246q-122 0 -293 94q-124 -105 -305 -105q-95 0 -173.5 29.5t-128 78.5t-76.5 109.5t-27 123.5q0 87 46 164t117 122q-56 105 -56 190q0 59 26.5 114t71 96.5t108.5 66.5t135 25q121 0 212 -70.5t112 -188.5l-244 -62q-4 46 -32 71.5t-62 25.5 q-32 0 -56.5 -24t-24.5 -65q0 -72 75.5 -168t192.5 -188q16 60 20 135l260 3q-4 -158 -53 -283q97 -46 156 -48zM434 211q54 0 97 21q-111 91 -198 192q-49 -42 -49 -97q0 -52 40.5 -84t109.5 -32z" />
<glyph unicode="'" horiz-adv-x="376" d="M110 711l-64 380h284l-65 -380h-155z" />
<glyph unicode="(" horiz-adv-x="498" d="M227 -79q-65 85 -107 196t-58 212t-16 204q0 161 43 323t137 287h225q-47 -80 -82.5 -194.5t-52 -221.5t-16.5 -194q0 -139 41 -316.5t112 -295.5h-226z" />
<glyph unicode=")" horiz-adv-x="498" d="M272 -79h-226q71 118 112 295.5t41 316.5q0 138 -40.5 315t-110.5 295h225q94 -125 137 -287t43 -323.5t-43 -324t-138 -287.5z" />
<glyph unicode="*" horiz-adv-x="620" d="M218 624l34 155l-109 -103l-97 134l174 62l-174 59l97 134l109 -102l-34 154h184l-34 -154l109 102l97 -134l-174 -64l174 -57l-97 -134l-109 102l34 -154h-184z" />
<glyph unicode="+" horiz-adv-x="886" d="M794 644v-237h-219v-243h-263v243h-220v237h220v242h263v-242h219z" />
<glyph unicode="," horiz-adv-x="506" d="M191 -253q-44 0 -76.5 17t-32.5 33q19 0 40 7t42 20.5t34.5 38.5t13.5 56t-11 49q-50 0 -91 43.5t-41 105.5q0 70 53 121.5t132 51.5q84 0 133.5 -61.5t49.5 -164.5q0 -59 -17 -115.5t-47.5 -101.5t-77.5 -72.5t-104 -27.5z" />
<glyph unicode="-" horiz-adv-x="653" d="M46 406v232h561v-232h-561z" />
<glyph unicode="." horiz-adv-x="487" d="M244 -38q-72 0 -123.5 48.5t-51.5 116.5q0 67 52 115t123 48t122.5 -48.5t51.5 -114.5q0 -68 -51 -116.5t-123 -48.5z" />
<glyph unicode="/" horiz-adv-x="707" d="M14 -79l433 1222h247l-435 -1222h-245z" />
<glyph unicode="0" horiz-adv-x="1032" d="M519 -22q-143 0 -250 68.5t-165 194t-58 291.5t58 291.5t165 194t250 68.5q141 0 247.5 -68.5t163.5 -194t57 -290.5q0 -166 -57 -292t-163.5 -194.5t-247.5 -68.5zM517 248q85 0 136 77.5t51 205.5q0 130 -51 208.5t-137 78.5q-43 0 -78 -20.5t-59.5 -57.5t-37.5 -90.5 t-13 -116.5q0 -129 51 -207t138 -78z" />
<glyph unicode="1" horiz-adv-x="524" d="M350 1071h82v-1071h-282v738l-104 -25v278z" />
<glyph unicode="2" horiz-adv-x="945" d="M562 259h338v-259h-854v102q91 77 158.5 134.5t128.5 112t102.5 95.5t75.5 78t53 65.5t29 53.5t10 46q0 54 -36.5 93.5t-89.5 39.5q-71 0 -124 -51.5t-53 -122.5l-229 76q0 57 20 111.5t58 100t87.5 80t112 53.5t129.5 19q111 0 205.5 -53t149 -142.5t54.5 -192.5 q0 -124 -92.5 -242.5t-232.5 -196.5z" />
<glyph unicode="3" horiz-adv-x="865" d="M639 606q80 -33 130 -107t50 -171q0 -99 -53 -178.5t-141 -122.5t-192 -43q-147 0 -257.5 88t-129.5 211l235 56q14 -43 53 -67t83 -24q52 0 84 32.5t32 83.5q0 67 -63 114.5t-178 48.5l32 125q74 0 118 33t44 81q0 23 -10.5 41.5t-28 29t-39.5 10.5q-29 0 -53 -18.5 t-36 -51.5l-235 52q19 78 65.5 138t118.5 95.5t159 35.5q140 0 236.5 -82t96.5 -204q0 -67 -32.5 -123.5t-88.5 -82.5z" />
<glyph unicode="4" horiz-adv-x="993" d="M966 438v-253h-103v-185h-282v185h-567l359 885l285 -1l-250 -631h173v233h282v-233h103z" />
<glyph unicode="5" horiz-adv-x="906" d="M507 729q104 0 185 -48t125 -130t44 -184q0 -113 -55 -201t-150 -135t-212 -47q-126 0 -231.5 59t-166.5 179l231 101q64 -80 148 -80q61 0 101.5 34t40.5 97q0 61 -40.5 93t-107.5 32q-53 0 -108 -18t-85 -49l-128 70l83 563h583v-253h-384l-18 -115q61 32 145 32z" />
<glyph unicode="6" horiz-adv-x="896" d="M521 680q86 0 161.5 -42t122 -118.5t46.5 -169.5q0 -73 -31 -141t-84 -118.5t-129 -80.5t-161 -30q-82 0 -153.5 23t-127 67.5t-87.5 115.5t-32 160q0 40 9.5 79t43 115.5t106 204t190.5 319.5l322 -1l-234 -386q17 3 38 3zM449.5 238q50.5 0 86 34.5t35.5 86.5 t-35.5 87.5t-85.5 35.5t-85 -35.5t-35 -88.5q0 -52 34.5 -86t85 -34z" />
<glyph unicode="7" horiz-adv-x="823" d="M28 1064h782v-49l-405 -1015h-296l307 805h-388v259z" />
<glyph unicode="8" horiz-adv-x="907" d="M453 -22q-179 0 -293 97.5t-114 247.5q0 61 20.5 113t52 85.5t64 53.5t62.5 26q-18 4 -36.5 14.5t-37 28.5t-32.5 41t-23 53.5t-9 63.5q0 76 44.5 141t124.5 104t178 39q75 0 141 -23t111 -62t71 -90.5t26 -107.5q0 -42 -15 -79.5t-38.5 -61.5t-47 -39.5t-43.5 -21.5 q22 -5 47 -17.5t53.5 -36.5t50.5 -54.5t36.5 -75.5t14.5 -96q0 -148 -113 -245.5t-295 -97.5zM455 678q38 0 66 25t28 65q0 41 -27.5 65t-66.5 24t-66 -24t-27 -64q0 -26 12.5 -47t33.5 -32.5t47 -11.5zM453 232q53 0 92.5 35t39.5 89t-39 90.5t-92 36.5t-92 -37t-39 -92 q0 -36 18.5 -64t48 -43t63.5 -15z" />
<glyph unicode="9" horiz-adv-x="896" d="M449 1088q112 0 204.5 -51.5t145 -139t52.5 -191.5q0 -86 -44.5 -176.5t-264.5 -462.5q-26 -43 -39 -66h-324l222 368q-16 -1 -23 -1q-87 0 -164 47.5t-122.5 126.5t-45.5 168q0 102 53 189t145.5 138t204.5 51zM448 585q49 0 84.5 35t35.5 85q0 54 -35 89t-85 35 q-51 0 -85.5 -35t-34.5 -89q0 -50 35.5 -85t84.5 -35z" />
<glyph unicode=":" horiz-adv-x="468" d="M234 470q-44 0 -82 20.5t-60.5 56.5t-22.5 78q0 64 48.5 110t116.5 46q44 0 82.5 -21t60.5 -57t22 -78q0 -63 -48.5 -109t-116.5 -46zM234 -8q-44 0 -82 21t-60.5 57t-22.5 78t22.5 78t60.5 57t82 21q67 0 116 -46.5t49 -109.5q0 -64 -48.5 -110t-116.5 -46z" />
<glyph unicode=";" horiz-adv-x="496" d="M234 467q-44 0 -82 20.5t-60.5 56.5t-22.5 78q0 64 48.5 109.5t116.5 45.5q44 0 82.5 -21t60.5 -56.5t22 -77.5q0 -64 -48.5 -109.5t-116.5 -45.5zM198 -231q-43 0 -73.5 16.5t-30.5 31.5q17 0 37.5 6.5t40 19.5t32.5 36.5t13 53.5q0 27 -10 47q-48 0 -86.5 41t-38.5 100 q0 43 22 81t62.5 61t90.5 23q80 0 127 -59t47 -156q0 -76 -27 -144t-81.5 -113t-124.5 -45z" />
<glyph unicode="&#x3c;" horiz-adv-x="876" d="M775 105l-683 422v14l692 423l-9 -276l-279 -154l279 -153v-276z" />
<glyph unicode="=" horiz-adv-x="893" d="M92 589v219h709v-219h-709zM92 229v218h709v-218h-709z" />
<glyph unicode="&#x3e;" horiz-adv-x="876" d="M102 105v276l279 153l-279 154l-9 276l691 -423v-14z" />
<glyph unicode="?" horiz-adv-x="733" d="M195 370q-2 8 -2 49q0 86 45 150t143 132q49 35 49 78q0 42 -27 66t-78 24q-59 0 -108 -32.5t-71 -82.5l-100 208q1 2 4 6q10 17 18.5 29t33.5 35.5t53.5 38.5t78 26.5t108.5 11.5q76 0 142.5 -26t109.5 -67.5t68 -90t25 -94.5q0 -81 -19.5 -130t-74.5 -99 q-14 -13 -37 -30.5t-38 -30t-30.5 -29.5t-23 -38t-7.5 -46q0 -44 3 -57zM329 -38q-46 0 -84 21.5t-59.5 57t-21.5 77.5q0 63 48 108t115 45q68 0 117.5 -46.5t49.5 -109.5q0 -64 -49 -108.5t-116 -44.5z" />
<glyph unicode="@" horiz-adv-x="1595" d="M710 -288q-160 0 -287.5 45.5t-209 126t-124.5 189t-43 237.5q0 169 66.5 317t180.5 252.5t271 165t332 60.5q128 0 236.5 -32t184 -87t129 -129t78.5 -158.5t25 -175.5q0 -84 -23 -164.5t-65.5 -149t-100 -120.5t-130.5 -81.5t-152 -29.5q-107 0 -159.5 64.5 t-54.5 174.5q-5 -30 -33 -55t-67.5 -38t-80.5 -13q-90 0 -146.5 65.5t-56.5 173.5q0 88 34 165.5t98 126.5t143 48q40 0 73 -13.5t52.5 -37.5t19.5 -53l37 98h182l-48 -403q-2 -26 -2 -31q0 -81 56 -81q34 0 62.5 30.5t46 78t26.5 101t9 103.5q0 95 -31 167t-87 116.5 t-131.5 66.5t-167.5 21q-112 0 -211.5 -39t-171.5 -106.5t-113.5 -163.5t-41.5 -205q0 -175 113.5 -281.5t307.5 -106.5q64 0 124 24l69 -221q-29 -11 -43.5 -16t-43 -12.5t-60 -10.5t-71.5 -3zM775 299q41 0 69.5 36t28.5 83q0 24 -8.5 42t-25 29.5t-38.5 11.5 q-28 0 -52.5 -17.5t-37.5 -44.5t-13 -56q0 -35 21 -59.5t56 -24.5z" />
<glyph unicode="A" horiz-adv-x="1151" d="M828 0l-54 124h-397l-54 -124h-309l494 1077h134l495 -1077h-309zM466 331h218l-108 252z" />
<glyph unicode="B" horiz-adv-x="928" d="M660 599q43 0 86 -20.5t77.5 -56t56 -87.5t21.5 -110q0 -63 -26 -122t-71 -104t-112.5 -72t-145.5 -27h-454v1064h350q142 0 238 -82t96 -195q0 -22 -4 -44.5t-11 -40.5t-16.5 -34.5t-20.5 -29t-22 -21.5t-22 -13.5t-20 -4.5zM539 737q0 37 -29.5 59t-75.5 22h-70v-167 h68q47 0 77 23t30 63zM504 257q52 0 89 26t37 75q0 47 -32.5 73.5t-91.5 26.5l-142 1v-202h140z" />
<glyph unicode="C" horiz-adv-x="1053" d="M627 -24q-90 0 -175.5 25.5t-158.5 74.5t-128.5 115.5t-87 154.5t-31.5 186q0 93 29 178.5t82.5 154t125 119t161.5 78t188 27.5q103 -1 207.5 -44t186.5 -117l-163 -209q-49 46 -110.5 72.5t-119.5 26.5q-124 0 -212 -83.5t-88 -204.5q0 -60 24.5 -114t65.5 -91.5 t94.5 -59t109.5 -21.5q122 0 238 103l161 -214q-172 -157 -399 -157z" />
<glyph unicode="D" horiz-adv-x="1068" d="M440 1064q271 1 426.5 -141.5t155.5 -391.5q0 -248 -155.5 -389.5t-426.5 -141.5h-348v1063zM435 266q94 0 162.5 32t105 91.5t36.5 141.5q0 126 -82 197.5t-225 71.5h-64v-534h67z" />
<glyph unicode="E" d="M782 801h-410v-148h338v-236h-338v-152h410v-265h-690v1064h690v-263z" />
<glyph unicode="F" horiz-adv-x="809" d="M782 801h-410v-172h338v-236h-338v-394h-280v1068h690v-266z" />
<glyph unicode="G" horiz-adv-x="1232" d="M1177 611q9 -58 9 -103q0 -119 -43 -219.5t-117 -169t-174 -106.5t-212 -38q-125 0 -235.5 44.5t-189 119.5t-124 177t-45.5 215q0 89 29 174t82.5 154t125.5 121t162 81t187 29q102 -2 208 -41t172 -100l-157 -214q-44 41 -104 66t-118.5 25t-113.5 -23.5t-95.5 -62.5 t-64.5 -93.5t-24 -115.5q0 -44 13.5 -87.5t41 -80.5t65 -65.5t88 -44.5t108.5 -16q97 0 159 44t65 120h-243v210h545z" />
<glyph unicode="H" horiz-adv-x="1065" d="M691 1064h282v-1064h-282v401h-316v-401h-283v1064h283v-399h316v399z" />
<glyph unicode="I" horiz-adv-x="467" d="M92 0v1064h283v-1064h-283z" />
<glyph unicode="J" horiz-adv-x="831" d="M284 -17q-143 0 -256 73l142 233q30 -23 54.5 -31.5t61.5 -8.5h5q72 0 123.5 48.5t51.5 113.5l-5 653l283 -1l4 -654q0 -118 -60.5 -216t-165 -154t-230.5 -56h-8z" />
<glyph unicode="K" horiz-adv-x="995" d="M986 0h-342l-270 405v-405h-282v1064h282v-397l247 397h325l-326 -519z" />
<glyph unicode="L" horiz-adv-x="809" d="M375 265h407v-265h-690v1064h283v-799z" />
<glyph unicode="M" horiz-adv-x="1325" d="M1119 1074h114v-1074h-283v422l-286 -404h-2l-287 404v-422h-283v1074h114l457 -626z" />
<glyph unicode="N" horiz-adv-x="1104" d="M729 1065h283v-1076h-90l-547 530v-520h-283v1075h91l546 -528v519z" />
<glyph unicode="O" horiz-adv-x="1260" d="M630 -27q-122 0 -230.5 43t-186 117t-122.5 177.5t-45 220.5q0 94 29 180.5t82 155t124.5 119.5t161.5 78.5t187 27.5q122 0 230.5 -43t186 -117.5t122.5 -178.5t45 -222q0 -117 -45 -220.5t-122.5 -177.5t-186 -117t-230.5 -43zM630.5 243q126.5 0 212.5 83.5t86 206.5 t-86 207t-212.5 84t-212.5 -84t-86 -207t86 -206.5t212.5 -83.5z" />
<glyph unicode="P" horiz-adv-x="924" d="M92 0v1064h402q108 0 200.5 -49.5t147 -135.5t54.5 -188q0 -101 -53.5 -188t-146 -138t-202.5 -51h-119v-314h-283zM494 574q57 -1 93.5 32.5t36.5 83.5q0 32 -16.5 58t-46.5 40.5t-67 14.5h-119v-229h119z" />
<glyph unicode="Q" horiz-adv-x="1266" d="M1218 46l-96 -252q-133 10 -231.5 58t-180.5 126q-37 -5 -80 -5q-122 0 -230.5 43t-186 117t-122.5 177.5t-45 220.5q0 94 29 180.5t82 155t124.5 119.5t161.5 78.5t187 27.5q122 0 230.5 -43t186 -117.5t122.5 -178.5t45 -222q0 -71 -16.5 -138t-48 -124.5t-75.5 -106.5 t-99 -87q113 -26 243 -29zM332 533q0 -123 86 -206.5t212.5 -83.5t212.5 83.5t86 206.5t-86 207t-212.5 84t-212.5 -84t-86 -207z" />
<glyph unicode="R" horiz-adv-x="1000" d="M991 0h-330l-285 462v-462h-282l-2 1064h404q113 0 203.5 -46.5t140.5 -125.5t50 -174q0 -97 -51.5 -175.5t-132.5 -115.5zM375 810v-213l115 -1q31 0 57 12.5t42 37.5t16 57q0 48 -34 77.5t-81 29.5h-115z" />
<glyph unicode="S" horiz-adv-x="863" d="M424 -15q-132 0 -239.5 54t-147.5 141l171 168q33 -49 91 -77t125 -28q18 0 35 2.5t32.5 8t26.5 13t18 18.5t7 23q0 13 -8 26.5t-25.5 27t-33.5 24t-46 25t-48 23t-53 23.5q-43 19 -78 39t-68 48t-55 59.5t-35.5 73t-13.5 87.5q0 90 52 163t138 113t187 40 q120 0 209.5 -50.5t121.5 -131.5l-163 -157q-15 27 -45.5 46t-61 27t-58.5 8t-51 -9t-35.5 -24t-12.5 -33q0 -11 4 -19.5t13.5 -16.5t20.5 -14t29 -14t34.5 -14t42 -16.5t46.5 -18.5q276 -116 276 -329q0 -98 -56 -174t-147 -115.5t-199 -39.5z" />
<glyph unicode="T" horiz-adv-x="848" d="M821 1064v-264h-255v-800h-283v800h-255v264h793z" />
<glyph unicode="U" horiz-adv-x="1049" d="M525 -30q-121 0 -222 52.5t-160.5 148.5t-59.5 216v677h285v-677q0 -64 46.5 -105.5t109.5 -41.5q40 0 76 18.5t59 52.5t23 76v677h284v-677q0 -120 -59.5 -216t-160 -148.5t-221.5 -52.5z" />
<glyph unicode="V" horiz-adv-x="1134" d="M811 1064h310l-491 -1075h-128l-488 1075h305l246 -576z" />
<glyph unicode="W" horiz-adv-x="1389" d="M370 -7l-356 1071h305l148 -487l217 485h22l217 -484l147 486h305l-355 -1071h-78l-248 526l-247 -526h-77z" />
<glyph unicode="X" horiz-adv-x="1035" d="M14 0l337 552l-319 512h323l163 -281l162 281h324l-321 -511l339 -553h-326l-179 314l-178 -314h-325z" />
<glyph unicode="Y" horiz-adv-x="964" d="M342 0v459l-328 605h320l148 -308l148 308h321l-329 -605v-459h-280z" />
<glyph unicode="Z" horiz-adv-x="915" d="M55 0l360 800h-360v264h805l-359 -799h359v-265h-805z" />
<glyph unicode="[" horiz-adv-x="556" d="M510 946h-176v-828h176v-197h-418v1222h418v-197z" />
<glyph unicode="\" horiz-adv-x="707" d="M694 -79h-245l-434 1222h246z" />
<glyph unicode="]" horiz-adv-x="556" d="M464 1143v-1222h-418v197h176v828h-176v197h418z" />
<glyph unicode="^" horiz-adv-x="671" d="M14 721l301 385h41l302 -385h-226l-96 140l-97 -140h-225z" />
<glyph unicode="_" horiz-adv-x="858" d="M0 -90v180h858v-180h-858z" />
<glyph unicode="`" horiz-adv-x="444" d="M157 880l-157 222h221l114 -222h-178z" />
<glyph unicode="i" horiz-adv-x="467" d="M92 0v1064h283v-1064h-283z" />
<glyph unicode="{" horiz-adv-x="644" d="M409 -79q-86 0 -146 53.5t-60 129.5v147q0 87 -47 150t-110 63v145q41 0 77 28t58 77.5t22 107.5v139q0 75 60 128.5t146 53.5h189v-197l-89 -3q-29 -1 -47 -29.5t-18 -70.5v-42q0 -109 -44.5 -186.5t-106.5 -77.5q62 0 106.5 -78t44.5 -187v-51q0 -44 18 -73.5t48 -29.5 h88v-197h-189z" />
<glyph unicode="|" horiz-adv-x="429" d="M132 -297v1518h166v-1518h-166z" />
<glyph unicode="}" horiz-adv-x="644" d="M236 -79h-189v197h88q20 0 35 14t23 37.5t8 51.5v51q0 43 7.5 83.5t21.5 73t32.5 57t41.5 38t47 13.5q-62 0 -106 77.5t-44 186.5v42q0 42 -18.5 70.5t-47.5 29.5l-88 3v197h189q85 0 145.5 -53.5t60.5 -128.5v-139q0 -87 47 -150t109 -63v-145q-40 0 -76 -28.5t-58 -78 t-22 -106.5v-147q0 -76 -60.5 -129.5t-145.5 -53.5z" />
<glyph unicode="~" horiz-adv-x="1132" d="M298 360l-206 63q13 64 38 114t55 81t67.5 51.5t73.5 28.5t74 8q49 0 92.5 -14t74 -34t57.5 -40t54 -34t53 -14q40 0 64.5 34.5t40.5 96.5l204 -63q-13 -66 -38.5 -116.5t-56.5 -81.5t-68.5 -51t-72.5 -27.5t-72 -7.5q-49 0 -92.5 14.5t-74 34.5t-57 40t-53.5 34t-52 14 q-42 0 -66 -34.5t-39 -96.5z" />
<glyph unicode="&#xa2;" horiz-adv-x="817" d="M774 170q-84 -68 -193 -91v-143h-220v150q-138 37 -228 146t-90 260t90 259.5t228 146.5v145h220v-139q103 -22 183 -82l-122 -190q-25 24 -63.5 39t-78.5 15q-81 0 -135.5 -56t-54.5 -138q0 -83 54.5 -138.5t135.5 -55.5q28 0 54.5 7t48.5 18.5t38 26.5z" />
<glyph unicode="&#xa3;" horiz-adv-x="838" d="M405 239h387v-239h-746v239h75q35 66 35 139q0 21 -3 36h-102v176h59q-11 45 -11 92q0 108 49.5 197.5t141.5 142t207 52.5q85 0 163 -39t124 -109l-164 -137q-25 46 -86 46q-50 0 -85.5 -26.5t-50.5 -64t-15 -79.5q0 -39 8 -75h204v-176h-161q4 -23 4 -41 q0 -75 -33 -134z" />
<glyph unicode="&#xa5;" horiz-adv-x="1029" d="M983 1064l-239 -439h213v-187h-302v-66h302v-187h-302v-185h-281v185h-290v187h290v66h-290v187h200l-238 439h320l149 -308l148 308h320z" />
<glyph unicode="&#xa8;" horiz-adv-x="453" d="M65 890q-40 0 -69 27t-29 64t29 64t69 27q39 0 67.5 -27t28.5 -64t-28.5 -64t-67.5 -27zM382 890q-39 0 -67.5 27t-28.5 64q0 24 13 45t35.5 33.5t47.5 12.5q40 0 69 -27t29 -64t-29 -64t-69 -27z" />
<glyph unicode="&#xa9;" horiz-adv-x="1215" d="M608 -59q-116 0 -220 42t-179 113.5t-119 171t-44 209.5t44 209t118.5 170.5t179 113.5t220.5 42t220.5 -42.5t179 -114.5t118.5 -171t44 -207q0 -89 -29 -171.5t-81 -148t-121.5 -114.5t-154.5 -75.5t-176 -26.5zM608 67q116 0 215.5 55t157.5 149.5t58 205.5 q0 110 -58 204.5t-157.5 150t-215.5 55.5t-215 -55.5t-157 -150t-58 -205.5q0 -83 34.5 -158.5t92.5 -130.5t137.5 -87.5t165.5 -32.5zM622 163q-71 0 -134 26t-107.5 69.5t-70 101.5t-25.5 121q0 62 26 120t70 101.5t107 69.5t134 26q113 0 206 -69l-113 -160 q-41 39 -93 39q-60 0 -99 -38.5t-39 -88.5t39 -89.5t99 -39.5q49 0 93 38l120 -152q-91 -75 -213 -75z" />
<glyph unicode="&#xab;" horiz-adv-x="898" d="M483 843l-190 -322l190 -320l-175 -34l-262 354l262 355zM853 843l-190 -322l190 -320l-176 -34l-261 354l261 355z" />
<glyph unicode="&#xad;" horiz-adv-x="653" d="M46 406v232h561v-232h-561z" />
<glyph unicode="&#xae;" horiz-adv-x="744" d="M372 1064q134 0 227 -87t93 -209q0 -83 -43 -151.5t-116.5 -107.5t-160.5 -39q-133 0 -226 86.5t-93 211.5q0 123 92.5 209.5t226.5 86.5zM372 545q65 0 120 30t87.5 81t32.5 111q0 91 -71 156.5t-169 65.5t-168.5 -65.5t-70.5 -156.5t71 -156.5t168 -65.5zM492 825 q0 -28 -15.5 -50.5t-38.5 -32.5l84 -115h-92l-83 121v-121h-80v296h114q47 0 79 -28.5t32 -69.5zM346 851v-60h33q13 0 22.5 8.5t9.5 21.5q0 7 -2.5 12.5t-7 9.5t-10.5 6t-12 2h-33z" />
<glyph unicode="&#xb4;" horiz-adv-x="520" d="M168 880h-178l114 222h221z" />
<glyph unicode="&#xb8;" horiz-adv-x="396" d="M93 -379l-65 153q90 -1 132.5 13t42.5 37q0 12 -9 21.5t-32 9.5q-14 0 -33 -5l-31 40l111 138h126l-72 -85h8h8q45 0 75.5 -32t30.5 -80q0 -83 -87 -147t-205 -63z" />
<glyph unicode="&#xbb;" horiz-adv-x="898" d="M222 876l261 -355l-261 -354l-176 34l190 320l-190 322zM592 876l261 -355l-261 -354l-176 34l190 320l-190 322z" />
<glyph unicode="&#xc0;" horiz-adv-x="1151" d="M743 1152h-177l-157 222h221zM828 0l-54 124h-397l-54 -124h-309l494 1077h134l495 -1077h-309zM466 331h218l-108 252z" />
<glyph unicode="&#xc2;" horiz-adv-x="1151" d="M575 1247l-84 -86h-201l206 193h157l208 -193h-202zM828 0l-54 124h-397l-54 -124h-309l494 1077h134l495 -1077h-309zM466 331h218l-108 252z" />
<glyph unicode="&#xc6;" horiz-adv-x="1452" d="M1387 801h-410v-148h338v-236h-338v-152h410v-265h-689v153h-305l-74 -153h-305l515 1064h858v-263zM508 389h190v390z" />
<glyph unicode="&#xc7;" horiz-adv-x="1053" d="M1026 133q-161 -147 -373 -156l-28 -34h8h8q44 0 74.5 -32t30.5 -80q0 -83 -86.5 -147t-204.5 -63l-66 153q91 -1 133.5 13t42.5 37q0 12 -9 21.5t-33 9.5q-13 0 -32 -5l-31 40l75 94q-99 14 -187.5 60t-155.5 115.5t-106.5 166.5t-39.5 206q0 93 29 178.5t82.5 154 t125 119t161.5 78t188 27.5q103 -1 207.5 -44t186.5 -117l-163 -209q-49 46 -110.5 72.5t-119.5 26.5q-124 0 -212 -83.5t-88 -204.5q0 -60 24.5 -114t65.5 -91.5t94.5 -59t109.5 -21.5q122 0 238 103z" />
<glyph unicode="&#xc8;" d="M588 1152h-177l-158 222h222zM782 801h-410v-148h338v-236h-338v-152h410v-265h-690v1064h690v-263z" />
<glyph unicode="&#xc9;" d="M644 1374l-158 -222h-177l113 222h222zM782 801h-410v-148h338v-236h-338v-152h410v-265h-690v1064h690v-263z" />
<glyph unicode="&#xca;" d="M420 1247l-84 -86h-201l206 193h157l208 -193h-202zM782 801h-410v-148h338v-236h-338v-152h410v-265h-690v1064h690v-263z" />
<glyph unicode="&#xcb;" d="M262 1162q-40 0 -69 27t-29 64t29 64t69 27q39 0 67.5 -27.5t28.5 -63.5q0 -37 -28.5 -64t-67.5 -27zM579 1162q-39 0 -67.5 27t-28.5 64q0 24 13 45t35.5 33.5t47.5 12.5q27 0 49.5 -12.5t35.5 -33.5t13 -45q0 -37 -28.5 -64t-69.5 -27zM782 801h-410v-148h338v-236 h-338v-152h410v-265h-690v1064h690v-263z" />
<glyph unicode="&#xce;" horiz-adv-x="467" d="M-51 1161l205 193h158l207 -193h-202l-84 86l-84 -86h-200zM92 0v1064h283v-1064h-283z" />
<glyph unicode="&#xcf;" horiz-adv-x="467" d="M75 1162q-40 0 -68.5 27t-28.5 64q0 24 13 45t35.5 33.5t48.5 12.5q39 0 68 -27.5t29 -63.5q0 -25 -13.5 -45.5t-35.5 -33t-48 -12.5zM393 1162q-40 0 -68.5 27t-28.5 64q0 36 29 63.5t68 27.5q26 0 48.5 -12.5t35.5 -33.5t13 -45q0 -37 -28.5 -64t-68.5 -27zM92 0v1064 h283v-1064h-283z" />
<glyph unicode="&#xd4;" horiz-adv-x="1260" d="M345 1161l205 193h158l208 -193h-203l-83 86l-84 -86h-201zM630 -27q-122 0 -230.5 43t-186 117t-122.5 177.5t-45 220.5q0 94 29 180.5t82 155t124.5 119.5t161.5 78.5t187 27.5q122 0 230.5 -43t186 -117.5t122.5 -178.5t45 -222q0 -117 -45 -220.5t-122.5 -177.5 t-186 -117t-230.5 -43zM630.5 243q126.5 0 212.5 83.5t86 206.5t-86 207t-212.5 84t-212.5 -84t-86 -207t86 -206.5t212.5 -83.5z" />
<glyph unicode="&#xd9;" horiz-adv-x="1049" d="M514 1152l-157 222h221l114 -222h-178zM525 -30q-121 0 -222 52.5t-160.5 148.5t-59.5 216v677h285v-677q0 -64 46.5 -105.5t109.5 -41.5q40 0 76 18.5t59 52.5t23 76v677h284v-677q0 -120 -59.5 -216t-160 -148.5t-221.5 -52.5z" />
<glyph unicode="&#xdb;" horiz-adv-x="1049" d="M239 1161l205 193h158l208 -193h-203l-84 86l-83 -86h-201zM525 -30q-121 0 -222 52.5t-160.5 148.5t-59.5 216v677h285v-677q0 -64 46.5 -105.5t109.5 -41.5q40 0 76 18.5t59 52.5t23 76v677h284v-677q0 -120 -59.5 -216t-160 -148.5t-221.5 -52.5z" />
<glyph unicode="&#xdc;" horiz-adv-x="1049" d="M366 1162q-40 0 -69 27t-29 64t29 64t69 27q39 0 67.5 -27.5t28.5 -63.5q0 -37 -28.5 -64t-67.5 -27zM683 1162q-39 0 -67.5 27t-28.5 64q0 36 28.5 63.5t67.5 27.5q40 0 69 -27t29 -64q0 -25 -13.5 -45.5t-36 -33t-48.5 -12.5zM525 -30q-121 0 -222 52.5t-160.5 148.5 t-59.5 216v677h285v-677q0 -64 46.5 -105.5t109.5 -41.5q40 0 76 18.5t59 52.5t23 76v677h284v-677q0 -120 -59.5 -216t-160 -148.5t-221.5 -52.5z" />
<glyph unicode="&#x152;" horiz-adv-x="1728" d="M1664 801h-411v-148h338v-236h-338v-152h411v-265h-690v111q-69 -66 -159 -102t-192 -36q-96 0 -184 27.5t-159 78t-124 118.5t-81.5 154t-28.5 180q0 117 45 221.5t122 179t184 117.5t227 43q101 0 191 -36t159 -102v110h690v-263zM630.5 243q126.5 0 212.5 83.5 t86 206.5t-86 207t-212.5 84t-212.5 -84t-86 -207t86 -206.5t212.5 -83.5z" />
<glyph unicode="&#x178;" horiz-adv-x="964" d="M324 1162q-26 0 -48.5 12.5t-36 33t-13.5 45.5q0 37 29 64t69 27q39 0 67.5 -27.5t28.5 -63.5q0 -37 -28.5 -64t-67.5 -27zM642 1162q-40 0 -68.5 27t-28.5 64q0 36 29 63.5t68 27.5t68 -27t29 -64t-28.5 -64t-68.5 -27zM342 0v459l-328 605h320l148 -308l148 308h321 l-329 -605v-459h-280z" />
<glyph unicode="&#x2c6;" horiz-adv-x="444" d="M-36 889l206 193h157l208 -193h-202l-84 86l-84 -86h-201z" />
<glyph unicode="&#x2da;" horiz-adv-x="427" d="M168 855q-66 0 -113 45t-47 109q0 42 21.5 77.5t58.5 56.5t80 21q65 0 112 -46t47 -109q0 -41 -21.5 -76.5t-58 -56.5t-79.5 -21zM168 952q25 0 42 16.5t17 39.5q0 24 -17 40.5t-42 16.5q-16 0 -29.5 -7.5t-21.5 -21t-8 -28.5t8 -28t21.5 -20.5t29.5 -7.5z" />
<glyph unicode="&#x2dc;" horiz-adv-x="545" d="M132 896l-129 39q8 40 23.5 71.5t34.5 51t42.5 32t46 17.5t46.5 5q37 0 70.5 -13.5t52.5 -29t42 -29t42 -13.5q45 0 65 82l128 -40q-10 -50 -31.5 -86.5t-49.5 -55t-55 -27t-57 -8.5q-37 0 -70 13.5t-52.5 29.5t-42 29.5t-41.5 13.5q-46 0 -65 -82z" />
<glyph unicode="&#x2000;" horiz-adv-x="687" />
<glyph unicode="&#x2001;" horiz-adv-x="1374" />
<glyph unicode="&#x2002;" horiz-adv-x="687" />
<glyph unicode="&#x2003;" horiz-adv-x="1374" />
<glyph unicode="&#x2004;" horiz-adv-x="458" />
<glyph unicode="&#x2005;" horiz-adv-x="343" />
<glyph unicode="&#x2006;" horiz-adv-x="229" />
<glyph unicode="&#x2007;" horiz-adv-x="229" />
<glyph unicode="&#x2008;" horiz-adv-x="171" />
<glyph unicode="&#x2009;" horiz-adv-x="274" />
<glyph unicode="&#x200a;" horiz-adv-x="76" />
<glyph unicode="&#x2010;" horiz-adv-x="653" d="M46 406v232h561v-232h-561z" />
<glyph unicode="&#x2011;" horiz-adv-x="653" d="M46 406v232h561v-232h-561z" />
<glyph unicode="&#x2012;" horiz-adv-x="653" d="M46 406v232h561v-232h-561z" />
<glyph unicode="&#x2013;" horiz-adv-x="1018" d="M50 406v232h919v-232h-919z" />
<glyph unicode="&#x2014;" horiz-adv-x="1351" d="M43 406v232h1266v-232h-1266z" />
<glyph unicode="&#x2018;" horiz-adv-x="427" d="M269 1084q41 0 70.5 -15.5t29.5 -30.5q-24 0 -49.5 -10t-47 -36.5t-21.5 -63.5q0 -28 10 -46q46 0 82.5 -39t36.5 -95q0 -41 -21 -77.5t-60 -58.5t-86 -22q-77 0 -122 56t-45 150q0 72 25.5 137t78 108t119.5 43z" />
<glyph unicode="&#x2019;" horiz-adv-x="427" d="M158 602q-28 0 -52 8t-36 18.5t-12 19.5q17 0 36.5 6.5t38 18.5t31 35t12.5 51t-10 45q-46 0 -83 39.5t-37 95.5q0 41 21.5 77t60.5 58t86 22q77 0 122 -56t45 -150q0 -72 -26 -137t-78 -108t-119 -43z" />
<glyph unicode="&#x201a;" horiz-adv-x="427" d="M158 -209q-41 0 -70.5 15.5t-29.5 30.5q17 0 36.5 6.5t38 18.5t31 34.5t12.5 50.5q0 29 -10 46q-46 0 -83 39t-37 95q0 64 48 111t120 47q77 0 122 -56t45 -150q0 -72 -26 -137t-78 -108t-119 -43z" />
<glyph unicode="&#x201c;" horiz-adv-x="823" d="M269 1084q41 0 70.5 -15.5t29.5 -30.5q-24 0 -49.5 -10t-47 -36.5t-21.5 -63.5q0 -28 10 -46q46 0 82.5 -39t36.5 -95q0 -41 -21 -77.5t-60 -58.5t-86 -22q-77 0 -122 56t-45 150q0 72 25.5 137t78 108t119.5 43zM666 1084q41 0 70.5 -15.5t29.5 -30.5q-24 0 -50 -10 t-47.5 -36.5t-21.5 -63.5q0 -28 10 -46q46 0 83 -39t37 -95q0 -41 -21.5 -77.5t-60 -58.5t-86.5 -22q-76 0 -121 56t-45 150q0 72 25.5 137t77.5 108t120 43z" />
<glyph unicode="&#x201d;" horiz-adv-x="823" d="M158 595q-28 0 -52 8.5t-36 19t-12 19.5q24 0 49.5 10t47 36.5t21.5 63.5q0 29 -10 45q-46 0 -83 39.5t-37 95.5q0 42 21.5 78t60.5 58t86 22q77 0 122 -56.5t45 -149.5q0 -73 -26 -137.5t-78 -108t-119 -43.5zM554 595q-27 0 -51 8.5t-36 19t-12 19.5q23 0 49 10 t47.5 36.5t21.5 63.5q0 29 -11 45q-21 0 -42.5 10.5t-38.5 28t-27.5 43t-10.5 53.5q0 31 12.5 60t34.5 50.5t53.5 34.5t67.5 13q76 0 121 -56.5t45 -149.5q0 -73 -25.5 -137.5t-77.5 -108t-120 -43.5z" />
<glyph unicode="&#x201e;" horiz-adv-x="823" d="M158 -211q-41 0 -70.5 15.5t-29.5 30.5q24 0 49.5 10t47 36.5t21.5 63.5q0 29 -10 46q-46 0 -83 39t-37 95q0 64 48 111t120 47q77 0 122 -56t45 -150q0 -53 -15.5 -104.5t-43 -92.5t-70.5 -66t-94 -25zM554 -211q-40 0 -69.5 15.5t-29.5 30.5q23 0 49 10t47.5 36.5 t21.5 63.5q0 29 -11 46q-45 0 -82 39t-37 95q0 64 48 111t120 47q76 0 121 -56t45 -150q0 -72 -25.5 -137t-77.5 -108t-120 -43z" />
<glyph unicode="&#x2022;" horiz-adv-x="808" d="M403 268q-116 0 -193.5 72t-77.5 181t78 182t194.5 73t194 -72.5t77.5 -182.5q0 -108 -78 -180.5t-195 -72.5z" />
<glyph unicode="&#x2026;" horiz-adv-x="1683" d="M307 -38q-72 0 -123.5 48.5t-51.5 116.5q0 67 52 115t123 48t122.5 -48.5t51.5 -114.5q0 -44 -23.5 -82t-63.5 -60.5t-87 -22.5zM849 -38q-72 0 -123 48.5t-51 116.5q0 67 51.5 115t122.5 48t123 -48.5t52 -114.5q0 -68 -51.5 -116.5t-123.5 -48.5zM1377 -38 q-72 0 -123 48.5t-51 116.5q0 67 51.5 115t122.5 48t123 -48.5t52 -114.5q0 -68 -51.5 -116.5t-123.5 -48.5z" />
<glyph unicode="&#x202f;" horiz-adv-x="274" />
<glyph unicode="&#x2039;" horiz-adv-x="529" d="M483 843l-190 -322l190 -320l-175 -34l-262 354l262 355z" />
<glyph unicode="&#x203a;" horiz-adv-x="529" d="M222 876l261 -355l-261 -354l-176 34l190 320l-190 322z" />
<glyph unicode="&#x205f;" horiz-adv-x="343" />
<glyph unicode="&#x20ac;" horiz-adv-x="1169" d="M725 244q121 0 237 103l161 -214q-172 -157 -398 -157q-127 0 -242.5 49.5t-201 143.5t-118.5 216h-117l13 127h86q-1 6 -1 20q0 17 1 26h-99l13 126h105q51 180 206 292.5t360 112.5q103 -1 207.5 -44t185.5 -117l-162 -209q-50 46 -111 72.5t-119 26.5 q-53 0 -101.5 -16.5t-87.5 -47t-66 -70.5h389l-12 -126h-421q-2 -19 -2 -28q0 -13 1 -18h414l-11 -127h-363q40 -65 108.5 -103t145.5 -38z" />
<glyph unicode="&#x2122;" horiz-adv-x="900" d="M830 1068h48v-456h-120v179l-121 -171h-1l-122 171v-179h-119v456h48l194 -265zM34 952v112h336v-112h-108v-340h-120v340h-108z" />
<glyph unicode="&#x25fc;" horiz-adv-x="1062" d="M0 1063h1063v-1063h-1063v1063z" />
</font>
</defs>
</svg>
